<?xml version="1.0"?>
<svg width="32" height="32" xmlns="http://www.w3.org/2000/svg" xmlns:svg="http://www.w3.org/2000/svg">
 <g>
  <title>Layer 1</title>
  <path fill="#c7c7c7" d="m30.17798,0.22022l-30,0l0,4l12,12l0,14l6,-6l0,-3.400011c0.699999,0.800001 1.799999,1.4 3,1.4c2.199999,0 4,-1.79999 4,-4s-1.800001,-3.999999 -4,-3.999999c-0.4,0 -0.800001,0.1 -1.200001,0.20001l10.200001,-10.2l0,-4zm-7,18.000001c0,1.1 -0.9,2 -2,2c-1.1,0 -2,-0.900011 -2,-2s0.9,-2 2,-2c1.1,0 2,0.9 2,2zm-6.4,-3.400011l-0.6,0.6l0,0.799999l0,7.200001l-2,2l0,-9.200001l0,-0.799999l-0.6,-0.6l-10.6,-10.599999l24.300001,0l-10.5,10.599999z" id="svg_1"/>
 </g>
</svg>