<?xml version="1.0" encoding="utf-8"?>
<!-- Generator: Adobe Illustrator 18.1.1, SVG Export Plug-In . SVG Version: 6.00 Build 0)  -->
<!DOCTYPE svg PUBLIC "-//W3C//DTD SVG 1.1//EN" "http://www.w3.org/Graphics/SVG/1.1/DTD/svg11.dtd">
<svg version="1.1" id="Layer_1" xmlns="http://www.w3.org/2000/svg" xmlns:xlink="http://www.w3.org/1999/xlink" x="0px" y="0px"
	 width="1280px" height="718.1px" viewBox="0 1.9 1280 718.1" enable-background="new 0 1.9 1280 718.1" xml:space="preserve">
<g id="grids">
</g>
<g id="background_color">
	<g>
		<g>
			<defs>
				<rect id="SVGID_1_" y="1.9" width="1277.2" height="718.1"/>
			</defs>
			<clipPath id="SVGID_2_">
				<use xlink:href="#SVGID_1_"  overflow="visible"/>
			</clipPath>
			<g clip-path="url(#SVGID_2_)">
				<rect y="1.9" fill="#DFE9E9" width="1280" height="718.1"/>
				<polygon fill="#ECF0F2" points="777,673 620,673 620,731 639,731 639,745.9 658.2,731 777,731 				"/>
				<g>
					<path fill="#C8D2D2" d="M670.2,695.2h1.5v4.9h6v-4.9h1.5v11.4h-1.5v-5.2h-6v5.2h-1.5V695.2z"/>
					<path fill="#C8D2D2" d="M688.3,704c-0.4,1.8-1.7,2.8-3.5,2.8c-2.6,0-3.9-1.8-4-4.4c0-2.5,1.6-4.3,3.9-4.3
						c2.9,0,3.8,2.7,3.7,4.7h-6.2c0,1.4,0.8,2.7,2.6,2.7c1.1,0,1.9-0.5,2.1-1.6L688.3,704L688.3,704z M687,701.7
						c-0.1-1.3-1-2.3-2.4-2.3s-2.3,1.1-2.4,2.3H687z"/>
					<path fill="#C8D2D2" d="M689.9,695.2h1.4v11.4h-1.4V695.2z"/>
					<path fill="#C8D2D2" d="M693,695.2h1.4v11.4H693V695.2z"/>
					<path fill="#C8D2D2" d="M699.8,698.2c2.6,0,4,1.9,4,4.3c0,2.4-1.4,4.3-4,4.3s-4-1.9-4-4.3S697.2,698.2,699.8,698.2z
						 M699.8,705.6c1.4,0,2.6-1.1,2.6-3.1s-1.2-3.1-2.6-3.1s-2.6,1.1-2.6,3.1C697.2,704.5,698.4,705.6,699.8,705.6z"/>
					<path fill="#C8D2D2" d="M705.4,704.9h1.8v1.8h-1.8V704.9z M707.1,698.8l-0.4,5H706l-0.4-5v-3.5h1.5L707.1,698.8L707.1,698.8z"
						/>
				</g>
				<polygon fill="#ECF0F2" points="1052,351 895,351 895,409 914,409 914,423.9 933.2,409 1052,409 				"/>
				<g>
					<path fill="#C8D2D2" d="M954,372.5h1.5v4.9h6v-4.9h1.5v11.4h-1.5v-5.2h-6v5.2H954V372.5z"/>
					<path fill="#C8D2D2" d="M972.1,381.3c-0.4,1.8-1.7,2.8-3.5,2.8c-2.6,0-3.9-1.8-4-4.4c0-2.5,1.6-4.3,3.9-4.3
						c2.9,0,3.8,2.7,3.7,4.7H966c0,1.4,0.8,2.7,2.6,2.7c1.1,0,1.9-0.5,2.1-1.6L972.1,381.3L972.1,381.3z M970.8,379
						c-0.1-1.3-1-2.3-2.4-2.3s-2.3,1.1-2.4,2.3H970.8z"/>
					<path fill="#C8D2D2" d="M973.6,372.5h1.4v11.4h-1.4V372.5z"/>
					<path fill="#C8D2D2" d="M976.8,372.5h1.4v11.4h-1.4V372.5z"/>
					<path fill="#C8D2D2" d="M983.5,375.5c2.6,0,4,1.9,4,4.3s-1.4,4.3-4,4.3s-4-1.9-4-4.3S980.9,375.5,983.5,375.5z M983.5,382.9
						c1.4,0,2.6-1.1,2.6-3.1s-1.2-3.1-2.6-3.1s-2.6,1.1-2.6,3.1S982.1,382.9,983.5,382.9z"/>
					<path fill="#C8D2D2" d="M989.1,382.2h1.8v1.8h-1.8V382.2z M990.8,376l-0.4,5h-0.7l-0.4-5v-3.5h1.5L990.8,376L990.8,376z"/>
				</g>
				<polygon fill="#ECF0F2" points="1033,448 1033,433 1013.8,448 895,448 895,506 1052,506 1052,448 				"/>
				<g>
					<path fill="#C8D2D2" d="M943.9,471.2h4.1c1,0,2.4,0,3,0.4c0.8,0.4,1.3,1.2,1.3,2.4c0,1.2-0.6,2.1-1.7,2.6l0,0
						c1.4,0.3,2.2,1.3,2.2,2.8c0,1.7-1.2,3.3-3.5,3.3h-5.5v-11.5H943.9z M945.4,476.1h3c1.7,0,2.4-0.6,2.4-1.8
						c0-1.6-1.1-1.8-2.4-1.8h-3V476.1z M945.4,481.4h3.8c1.3,0,2.1-0.8,2.1-2c0-1.5-1.2-1.9-2.5-1.9h-3.5v3.9H945.4z"/>
					<path fill="#C8D2D2" d="M958.1,474.2c2.6,0,4,1.9,4,4.3s-1.4,4.3-4,4.3s-4-1.9-4-4.3C954.1,476.1,955.5,474.2,958.1,474.2z
						 M958.1,481.6c1.4,0,2.6-1.1,2.6-3.1s-1.2-3.1-2.6-3.1s-2.6,1.1-2.6,3.1S956.7,481.6,958.1,481.6z"/>
					<path fill="#C8D2D2" d="M963.4,474.4h1.3v1.3l0,0c0.6-1,1.5-1.5,2.7-1.5c2.2,0,2.8,1.2,2.8,3v5.4h-1.4V477c0-1-0.6-1.7-1.7-1.7
						c-1.6,0-2.4,1.1-2.4,2.6v4.7h-1.4v-8.2H963.4z"/>
					<path fill="#C8D2D2" d="M973.3,483.7c0,1.5-0.8,2.1-2,2.1c-0.2,0-0.5,0-0.7-0.1v-1.2c0.1,0,0.2,0,0.3,0h0.3
						c0.6,0,0.8-0.3,0.8-1.1v-9.1h1.4L973.3,483.7L973.3,483.7z M973.3,472.9H972v-1.7h1.4v1.7H973.3z"/>
					<path fill="#C8D2D2" d="M978.8,474.2c2.6,0,4,1.9,4,4.3s-1.4,4.3-4,4.3s-4-1.9-4-4.3C974.8,476.1,976.2,474.2,978.8,474.2z
						 M978.8,481.6c1.4,0,2.6-1.1,2.6-3.1s-1.2-3.1-2.6-3.1s-2.6,1.1-2.6,3.1S977.4,481.6,978.8,481.6z"/>
					<path fill="#C8D2D2" d="M991,482.7h-1.3v-1.3l0,0c-0.6,1-1.5,1.5-2.7,1.5c-2.2,0-2.8-1.2-2.8-3v-5.4h1.4v5.6
						c0,1,0.6,1.7,1.7,1.7c1.6,0,2.4-1.1,2.4-2.6v-4.7h1.4v8.2H991z"/>
					<path fill="#C8D2D2" d="M992.7,474.4h1.3v1.7l0,0c0.7-1.3,1.6-2,3-1.9v1.4c-2.2,0-3,1.2-3,3.3v3.7h-1.4v-8.2H992.7z"/>
					<path fill="#C8D2D2" d="M998.1,480.9h1.8v1.8h-1.8V480.9z M999.8,474.8l-0.4,5h-0.7l-0.4-5v-3.5h1.5L999.8,474.8L999.8,474.8z"
						/>
				</g>
				<polygon fill="#ECF0F2" points="377,607 220,607 220,665 239,665 239,679.9 258.2,665 377,665 				"/>
				<g>
					<path fill="#C8D2D2" d="M270.2,629.2h1.5v4.9h6v-4.9h1.5v11.4h-1.5v-5.2h-6v5.2h-1.5V629.2z"/>
					<path fill="#C8D2D2" d="M288.3,638c-0.4,1.8-1.7,2.8-3.5,2.8c-2.6,0-3.9-1.8-4-4.4c0-2.5,1.6-4.3,3.9-4.3
						c2.9,0,3.8,2.7,3.7,4.7h-6.2c0,1.4,0.8,2.7,2.6,2.7c1.1,0,1.9-0.5,2.1-1.6L288.3,638L288.3,638z M287,635.7
						c-0.1-1.3-1-2.3-2.4-2.3s-2.3,1.1-2.4,2.3H287z"/>
					<path fill="#C8D2D2" d="M289.9,629.2h1.4v11.4h-1.4V629.2z"/>
					<path fill="#C8D2D2" d="M293,629.2h1.4v11.4H293V629.2z"/>
					<path fill="#C8D2D2" d="M299.8,632.2c2.6,0,4,1.9,4,4.3c0,2.4-1.4,4.3-4,4.3s-4-1.9-4-4.3S297.2,632.2,299.8,632.2z
						 M299.8,639.6c1.4,0,2.6-1.1,2.6-3.1s-1.2-3.1-2.6-3.1s-2.6,1.1-2.6,3.1C297.2,638.5,298.4,639.6,299.8,639.6z"/>
					<path fill="#C8D2D2" d="M305.4,638.9h1.8v1.8h-1.8V638.9z M307.1,632.8l-0.4,5H306l-0.4-5v-3.5h1.5V632.8z"/>
				</g>
				<polygon fill="#ECF0F2" points="358,704 358,689 338.8,704 220,704 220,762 377,762 377,704 				"/>
				<polygon fill="#ECF0F2" points="594,221 437,221 437,279 456,279 456,293.9 475.2,279 594,279 				"/>
				<g>
					<path fill="#C8D2D2" d="M497.1,243.2h1.5v4.9h6v-4.9h1.5v11.4h-1.5v-5.2h-6v5.2h-1.5V243.2z"/>
					<path fill="#C8D2D2" d="M515.3,252c-0.4,1.8-1.7,2.8-3.5,2.8c-2.6,0-3.9-1.8-4-4.4c0-2.5,1.6-4.3,3.9-4.3
						c2.9,0,3.8,2.7,3.7,4.7h-6.2c0,1.4,0.8,2.7,2.6,2.7c1.1,0,1.9-0.5,2.1-1.6h1.4V252z M513.9,249.7c-0.1-1.3-1-2.3-2.4-2.3
						s-2.3,1.1-2.4,2.3H513.9z"/>
					<path fill="#C8D2D2" d="M516.8,243.2h1.4v11.4h-1.4V243.2z"/>
					<path fill="#C8D2D2" d="M519.9,243.2h1.4v11.4h-1.4V243.2z"/>
					<path fill="#C8D2D2" d="M526.7,246.2c2.6,0,4,1.9,4,4.3c0,2.4-1.4,4.3-4,4.3s-4-1.9-4-4.3S524.1,246.2,526.7,246.2z
						 M526.7,253.6c1.4,0,2.6-1.1,2.6-3.1s-1.2-3.1-2.6-3.1s-2.6,1.1-2.6,3.1C524.1,252.5,525.3,253.6,526.7,253.6z"/>
					<path fill="#C8D2D2" d="M532.3,252.9h1.8v1.8h-1.8V252.9z M534,246.8l-0.4,5h-0.7l-0.4-5v-3.5h1.5L534,246.8L534,246.8z"/>
				</g>
				<polygon fill="#ECF0F2" points="575,318 575,303 555.8,318 437,318 437,376 594,376 594,318 				"/>
				<g>
					<path fill="#C8D2D2" d="M487.7,341.2h4.1c1,0,2.4,0,3,0.4c0.8,0.4,1.3,1.2,1.3,2.4c0,1.2-0.6,2.1-1.7,2.6l0,0
						c1.4,0.3,2.2,1.3,2.2,2.8c0,1.7-1.2,3.3-3.5,3.3h-5.5v-11.5H487.7z M489.2,346.1h3c1.7,0,2.4-0.6,2.4-1.8
						c0-1.6-1.1-1.8-2.4-1.8h-3V346.1z M489.2,351.4h3.8c1.3,0,2.1-0.8,2.1-2c0-1.5-1.2-1.9-2.5-1.9h-3.5v3.9H489.2z"/>
					<path fill="#C8D2D2" d="M501.9,344.2c2.6,0,4,1.9,4,4.3s-1.4,4.3-4,4.3s-4-1.9-4-4.3C497.9,346.1,499.3,344.2,501.9,344.2z
						 M501.9,351.6c1.4,0,2.6-1.1,2.6-3.1s-1.2-3.1-2.6-3.1s-2.6,1.1-2.6,3.1S500.5,351.6,501.9,351.6z"/>
					<path fill="#C8D2D2" d="M507.2,344.4h1.3v1.3l0,0c0.6-1,1.5-1.5,2.7-1.5c2.2,0,2.8,1.2,2.8,3v5.4h-1.4V347c0-1-0.6-1.7-1.7-1.7
						c-1.6,0-2.4,1.1-2.4,2.6v4.7h-1.4v-8.2H507.2z"/>
					<path fill="#C8D2D2" d="M517.2,353.7c0,1.5-0.8,2.1-2,2.1c-0.2,0-0.5,0-0.7-0.1v-1.2c0.1,0,0.2,0,0.3,0h0.3
						c0.6,0,0.8-0.3,0.8-1.1v-9.1h1.4L517.2,353.7L517.2,353.7z M517.2,342.9h-1.4v-1.7h1.4V342.9z"/>
					<path fill="#C8D2D2" d="M522.6,344.2c2.6,0,4,1.9,4,4.3s-1.4,4.3-4,4.3s-4-1.9-4-4.3C518.6,346.1,520,344.2,522.6,344.2z
						 M522.6,351.6c1.4,0,2.6-1.1,2.6-3.1s-1.2-3.1-2.6-3.1s-2.6,1.1-2.6,3.1S521.2,351.6,522.6,351.6z"/>
					<path fill="#C8D2D2" d="M534.8,352.7h-1.3v-1.3l0,0c-0.6,1-1.5,1.5-2.7,1.5c-2.2,0-2.8-1.2-2.8-3v-5.4h1.4v5.6
						c0,1,0.6,1.7,1.7,1.7c1.6,0,2.4-1.1,2.4-2.6v-4.7h1.4v8.2H534.8z"/>
					<path fill="#C8D2D2" d="M536.5,344.4h1.3v1.7l0,0c0.7-1.3,1.6-2,3-1.9v1.4c-2.2,0-3,1.2-3,3.3v3.7h-1.4v-8.2H536.5z"/>
					<path fill="#C8D2D2" d="M541.9,350.9h1.8v1.8h-1.8V350.9z M543.6,344.8l-0.4,5h-0.7l-0.4-5v-3.5h1.5L543.6,344.8L543.6,344.8z"
						/>
				</g>
				<polygon fill="#ECF0F2" points="212,157 105,157 105,196 118,196 118,206.4 130.9,196 212,196 				"/>
				<polygon fill="#ECF0F2" points="199,223 199,212.5 186.1,223 105,223 105,262 212,262 212,223 				"/>
				<g>
					<path fill="#C8D2D2" d="M143.7,238.4h1v3.3h4.1v-3.3h1v7.7h-1v-3.5h-4.1v3.5h-1V238.4z"/>
					<path fill="#C8D2D2" d="M155.9,244.4c-0.2,1.2-1.1,1.9-2.4,1.9c-1.8,0-2.6-1.2-2.7-2.9c0-1.7,1.1-2.9,2.6-2.9
						c2,0,2.6,1.8,2.5,3.2h-4.2c0,1,0.5,1.8,1.7,1.8c0.8,0,1.3-0.4,1.4-1.1H155.9z M155.1,242.8c-0.1-0.9-0.7-1.6-1.6-1.6
						c-0.9,0-1.5,0.7-1.6,1.6H155.1z"/>
					<path fill="#C8D2D2" d="M157,238.4h0.9v7.7H157V238.4z"/>
					<path fill="#C8D2D2" d="M159.1,238.4h0.9v7.7h-0.9V238.4z"/>
					<path fill="#C8D2D2" d="M163.7,240.4c1.8,0,2.7,1.3,2.7,2.9c0,1.6-0.9,2.9-2.7,2.9s-2.7-1.3-2.7-2.9S161.9,240.4,163.7,240.4z
						 M163.7,245.5c1,0,1.7-0.8,1.7-2.1s-0.8-2.1-1.7-2.1c-1,0-1.7,0.8-1.7,2.1C161.9,244.7,162.7,245.5,163.7,245.5z"/>
					<path fill="#C8D2D2" d="M167.4,245h1.2v1.2h-1.2V245z M168.6,240.8l-0.3,3.4h-0.5l-0.3-3.4v-2.4h1v2.4H168.6z"/>
				</g>
				<g>
					<path fill="#C8D2D2" d="M148.1,176.5c-0.7,0-1,0.3-1,0.5c0,0.7,0.5,1.9,0.8,3.2c0,0.1,0.1,0.4,0.1,0.6c0,0.3-0.1,0.6-0.1,0.9
						h-0.2c0-0.7-0.5-2-0.9-3.4c-0.1-0.2-0.1-0.5-0.1-0.7c0-0.3,0.1-0.6,0.2-0.8c0.1-0.4,0.3-0.7,0.6-0.8c-0.1-0.3-0.1-0.6-0.1-0.8
						c0-0.3,0.2-0.6,0.4-0.8s0.4-0.3,0.6-0.3c0.3,0,0.6,0.1,0.8,0.3c0.4,0.3,0.7,0.7,1,1.2c0.1,0.1,0.1,0.3,0.1,0.4
						c0,0.2-0.1,0.5-0.2,0.7C149.2,176.6,148.6,176.5,148.1,176.5z M149.3,175.8c-0.4-0.5-0.7-1-1.4-1c-0.1,0-0.3,0-0.4,0.1v0.3
						c0,0.2-0.1,0.5-0.2,0.6c0.2-0.1,0.5-0.1,0.9-0.1C148.5,175.7,148.9,175.7,149.3,175.8L149.3,175.8z"/>
					<path fill="#C8D2D2" d="M153.2,174.3l0.5,0.9c0.2,0.3,0.3,0.7,0.3,1.2v0.7c0,0.6-0.3,1.2-0.8,1.8c-0.4,0.4-0.7,0.6-1,0.6
						c-0.5,0-1-0.2-1.6-0.5l0.1-0.2c0.2,0.1,0.4,0.1,0.7,0.1c0.9,0,1.8-0.8,2.2-1.7c0.1-0.1,0.1-0.2,0.1-0.3s-0.1-0.2-0.1-0.3
						c-0.2-0.5-0.5-1-0.8-1.4C152.9,174.8,153,174.5,153.2,174.3L153.2,174.3z"/>
					<path fill="#C8D2D2" d="M158.1,175.5c-0.7-0.3-1.2-0.4-1.8-0.4c-0.4,0-0.6,0.1-0.8,0.3l0.1,0.5l-0.2,0.5h-0.1l-0.4-1
						c0.1-0.7,0.6-1.1,1.4-1.1c0.4,0,1.1,0.2,2.1,0.6c0.3,0.1,0.6,0.2,1.1,0.2h0.6l0,0l-0.4,0.6c-0.4,0-1.4,0.3-1.7,0.4
						c-1.4,0.5-2.3,1.3-2.3,2.1c0,1.3,1.4,2.1,3.2,2.1c0.6,0,1.1-0.1,1.6-0.1v0.1c-0.3,0.3-0.7,0.6-1,0.8c-0.3,0.1-0.7,0.1-1.2,0.1
						c-1.7,0-3.1-0.8-3.1-2.6C155.2,177.1,156.5,175.9,158.1,175.5L158.1,175.5z"/>
					<path fill="#C8D2D2" d="M164.3,177.8c-1.8,0-3.1-0.6-3.1-2.2c0-0.5,0.1-1,0.4-1.5l0.3,0.1c-0.1,0.4-0.2,0.7-0.2,1
						c0,1.3,1.3,1.8,2.9,1.8c0.7,0,1.5-0.1,2.2-0.3c0.3-0.1,0.6-0.1,0.8-0.3c0.1,0,0.1-0.1,0.1-0.1c0-0.3-0.3-0.9-0.6-1.6
						c0.2-0.3,0.3-0.5,0.5-0.7l0,0c0.3,0.5,0.6,1.3,0.6,1.9c0,0.5-0.2,0.8-0.3,1.1C167.2,177.4,165.6,177.8,164.3,177.8z M164.5,179
						c0.3,0.2,0.5,0.4,0.8,0.7c-0.1,0.2-0.3,0.4-0.5,0.6c-0.2-0.2-0.5-0.4-0.7-0.7C164.2,179.4,164.4,179.2,164.5,179z"/>
					<path fill="#C8D2D2" d="M169.3,177.7c0.1-0.4,0.1-0.9,0.1-1.3v-0.6c0-1.2-0.1-2.9-0.2-3.9c0.2-0.2,0.4-0.5,0.6-0.7h0.1
						c0.1,1.4,0.2,3,0.2,4.5c0,0.4,0,0.8,0,1C169.9,177,169.8,177.3,169.3,177.7L169.3,177.7z"/>
				</g>
				<polygon fill="#ECF0F2" points="817,209 817,248 830,248 830,258.4 842.9,248 924,248 924,209 				"/>
				<g>
					<path fill="#C8D2D2" d="M858.2,224.2h1v3.3h4.1v-3.3h1v7.7h-1v-3.5h-4.1v3.5h-1V224.2z"/>
					<path fill="#C8D2D2" d="M870.5,230.1c-0.2,1.2-1.1,1.9-2.4,1.9c-1.8,0-2.6-1.2-2.7-2.9c0-1.7,1.1-2.9,2.6-2.9
						c2,0,2.6,1.8,2.5,3.2h-4.2c0,1,0.5,1.8,1.7,1.8c0.8,0,1.3-0.4,1.4-1.1H870.5z M869.6,228.6c-0.1-0.9-0.7-1.6-1.6-1.6
						c-0.9,0-1.5,0.7-1.6,1.6H869.6z"/>
					<path fill="#C8D2D2" d="M871.5,224.2h0.9v7.7h-0.9V224.2z"/>
					<path fill="#C8D2D2" d="M873.6,224.2h0.9v7.7h-0.9V224.2z"/>
					<path fill="#C8D2D2" d="M878.2,226.2c1.8,0,2.7,1.3,2.7,2.9c0,1.6-0.9,2.9-2.7,2.9s-2.7-1.3-2.7-2.9S876.4,226.2,878.2,226.2z
						 M878.2,231.2c1,0,1.7-0.8,1.7-2.1s-0.8-2.1-1.7-2.1s-1.7,0.8-1.7,2.1C876.4,230.5,877.2,231.2,878.2,231.2z"/>
					<path fill="#C8D2D2" d="M882,230.7h1.2v1.2H882V230.7z M883.1,226.6l-0.3,3.4h-0.5l-0.3-3.4v-2.4h1L883.1,226.6L883.1,226.6z"
						/>
				</g>
				<polygon fill="#ECF0F2" points="911,275 911,264.5 898.1,275 817,275 817,314 924,314 924,275 				"/>
				<g>
					<path fill="#C8D2D2" d="M850.5,290.3h2.8c0.7,0,1.6,0,2,0.3c0.5,0.3,0.9,0.8,0.9,1.6c0,0.8-0.4,1.4-1.1,1.7l0,0
						c0.9,0.2,1.5,0.9,1.5,1.9c0,1.1-0.8,2.2-2.3,2.2h-3.7v-7.7H850.5z M851.6,293.6h2.1c1.2,0,1.6-0.4,1.6-1.2
						c0-1.1-0.7-1.2-1.6-1.2h-2.1V293.6z M851.6,297.1h2.6c0.9,0,1.4-0.5,1.4-1.4c0-1-0.8-1.3-1.7-1.3h-2.3V297.1z"/>
					<path fill="#C8D2D2" d="M860.1,292.3c1.8,0,2.7,1.3,2.7,2.9s-0.9,2.9-2.7,2.9s-2.7-1.3-2.7-2.9
						C857.4,293.6,858.3,292.3,860.1,292.3z M860.1,297.3c1,0,1.7-0.8,1.7-2.1c0-1.3-0.8-2.1-1.7-2.1c-1,0-1.7,0.8-1.7,2.1
						C858.4,296.6,859.1,297.3,860.1,297.3z"/>
					<path fill="#C8D2D2" d="M863.7,292.4h0.9v0.9l0,0c0.4-0.7,1-1,1.8-1c1.5,0,1.9,0.8,1.9,2v3.7h-0.9v-3.8c0-0.7-0.4-1.1-1.1-1.1
						c-1.1,0-1.7,0.7-1.7,1.7v3.2h-0.9V292.4z"/>
					<path fill="#C8D2D2" d="M870.4,298.7c0,1-0.5,1.4-1.3,1.4c-0.2,0-0.3,0-0.5,0v-0.8c0.1,0,0.1,0,0.2,0h0.2
						c0.4,0,0.5-0.2,0.5-0.8v-6.1h0.9L870.4,298.7L870.4,298.7z M870.4,291.4h-0.9v-1.1h0.9V291.4z"/>
					<path fill="#C8D2D2" d="M874.1,292.3c1.8,0,2.7,1.3,2.7,2.9s-0.9,2.9-2.7,2.9s-2.7-1.3-2.7-2.9
						C871.4,293.6,872.3,292.3,874.1,292.3z M874.1,297.3c1,0,1.7-0.8,1.7-2.1c0-1.3-0.8-2.1-1.7-2.1c-1,0-1.7,0.8-1.7,2.1
						C872.4,296.6,873.1,297.3,874.1,297.3z"/>
					<path fill="#C8D2D2" d="M882.3,298h-0.9v-0.9l0,0c-0.4,0.7-1,1-1.8,1c-1.5,0-1.9-0.8-1.9-2v-3.7h0.9v3.8c0,0.7,0.4,1.1,1.1,1.1
						c1.1,0,1.7-0.7,1.7-1.7v-3.2h0.9V298z"/>
					<path fill="#C8D2D2" d="M883.5,292.4h0.9v1.2l0,0c0.4-0.9,1.1-1.3,2.1-1.3v1c-1.5,0-2,0.8-2,2.3v2.5h-0.9L883.5,292.4
						L883.5,292.4z"/>
					<path fill="#C8D2D2" d="M887.1,296.8h1.2v1.2h-1.2V296.8z M888.2,292.7l-0.3,3.4h-0.5l-0.3-3.4v-2.4h1L888.2,292.7L888.2,292.7
						z"/>
				</g>
				<polygon fill="#ECF0F2" points="349,454 349,493 362,493 362,503.4 374.9,493 456,493 456,454 				"/>
				<g>
					<path fill="#C8D2D2" d="M383.4,469.2h1v3.3h4.1v-3.3h1v7.7h-1v-3.5h-4.1v3.5h-1V469.2z"/>
					<path fill="#C8D2D2" d="M395.7,475.1c-0.2,1.2-1.1,1.9-2.4,1.9c-1.8,0-2.6-1.2-2.7-2.9c0-1.7,1.1-2.9,2.6-2.9
						c2,0,2.6,1.8,2.5,3.2h-4.2c0,1,0.5,1.8,1.7,1.8c0.8,0,1.3-0.4,1.4-1.1H395.7z M394.8,473.6c-0.1-0.9-0.7-1.6-1.6-1.6
						s-1.5,0.7-1.6,1.6H394.8z"/>
					<path fill="#C8D2D2" d="M396.7,469.2h0.9v7.7h-0.9V469.2z"/>
					<path fill="#C8D2D2" d="M398.8,469.2h0.9v7.7h-0.9V469.2z"/>
					<path fill="#C8D2D2" d="M403.4,471.2c1.8,0,2.7,1.3,2.7,2.9s-0.9,2.9-2.7,2.9s-2.7-1.3-2.7-2.9
						C400.7,472.5,401.6,471.2,403.4,471.2z M403.4,476.2c1,0,1.7-0.8,1.7-2.1c0-1.3-0.8-2.1-1.7-2.1c-1,0-1.7,0.8-1.7,2.1
						C401.6,475.5,402.4,476.2,403.4,476.2z"/>
					<path fill="#C8D2D2" d="M407.2,475.7h1.2v1.2h-1.2V475.7z M408.3,471.6l-0.3,3.3h-0.5l-0.3-3.4v-2.4h1L408.3,471.6L408.3,471.6
						z"/>
				</g>
				<polygon fill="#ECF0F2" points="443,520 443,509.5 430.1,520 349,520 349,559 456,559 456,520 				"/>
				<g>
					<path fill="#C8D2D2" d="M382.5,535.3h2.8c0.7,0,1.6,0,2,0.3c0.5,0.3,0.9,0.8,0.9,1.6s-0.4,1.4-1.1,1.7l0,0
						c0.9,0.2,1.5,0.9,1.5,1.9c0,1.1-0.8,2.2-2.3,2.2h-3.7L382.5,535.3L382.5,535.3z M383.6,538.6h2.1c1.2,0,1.6-0.4,1.6-1.2
						c0-1.1-0.7-1.2-1.6-1.2h-2.1V538.6z M383.6,542.1h2.6c0.9,0,1.4-0.5,1.4-1.4c0-1-0.8-1.3-1.7-1.3h-2.3V542.1z"/>
					<path fill="#C8D2D2" d="M392.1,537.3c1.8,0,2.7,1.3,2.7,2.9c0,1.6-0.9,2.9-2.7,2.9s-2.7-1.3-2.7-2.9S390.3,537.3,392.1,537.3z
						 M392.1,542.3c1,0,1.7-0.8,1.7-2.1s-0.8-2.1-1.7-2.1c-1,0-1.7,0.8-1.7,2.1C390.4,541.6,391.1,542.3,392.1,542.3z"/>
					<path fill="#C8D2D2" d="M395.7,537.4h0.9v0.9l0,0c0.4-0.7,1-1,1.8-1c1.5,0,1.9,0.8,1.9,2v3.7h-0.9v-3.8c0-0.7-0.4-1.1-1.1-1.1
						c-1.1,0-1.7,0.7-1.7,1.7v3.2h-0.9L395.7,537.4L395.7,537.4z"/>
					<path fill="#C8D2D2" d="M402.4,543.7c0,1-0.5,1.4-1.3,1.4c-0.2,0-0.3,0-0.5,0v-0.8c0.1,0,0.1,0,0.2,0h0.2
						c0.4,0,0.5-0.2,0.5-0.8v-6.1h0.9L402.4,543.7L402.4,543.7z M402.4,536.4h-0.9v-1.1h0.9V536.4z"/>
					<path fill="#C8D2D2" d="M406.1,537.3c1.8,0,2.7,1.3,2.7,2.9c0,1.6-0.9,2.9-2.7,2.9s-2.7-1.3-2.7-2.9S404.3,537.3,406.1,537.3z
						 M406.1,542.3c1,0,1.7-0.8,1.7-2.1s-0.8-2.1-1.7-2.1c-1,0-1.7,0.8-1.7,2.1C404.4,541.6,405.1,542.3,406.1,542.3z"/>
					<path fill="#C8D2D2" d="M414.3,543h-0.9v-0.9l0,0c-0.4,0.7-1,1-1.8,1c-1.5,0-1.9-0.8-1.9-2v-3.7h0.9v3.8c0,0.7,0.4,1.1,1.1,1.1
						c1.1,0,1.7-0.7,1.7-1.7v-3.2h0.9L414.3,543L414.3,543z"/>
					<path fill="#C8D2D2" d="M415.5,537.4h0.9v1.2l0,0c0.4-0.9,1.1-1.3,2.1-1.3v1c-1.5,0-2,0.8-2,2.3v2.5h-0.9v-5.7H415.5z"/>
					<path fill="#C8D2D2" d="M419.1,541.8h1.2v1.2h-1.2V541.8z M420.2,537.7l-0.3,3.4h-0.5l-0.3-3.4v-2.4h1L420.2,537.7L420.2,537.7
						z"/>
				</g>
				<polygon fill="#ECF0F2" points="752,520 752,559 765,559 765,569.4 777.9,559 859,559 859,520 				"/>
				<g>
					<path fill="#C8D2D2" d="M786.4,535.2h1v3.3h4.1v-3.3h1v7.7h-1v-3.5h-4.1v3.5h-1V535.2z"/>
					<path fill="#C8D2D2" d="M798.7,541.1c-0.2,1.2-1.1,1.9-2.4,1.9c-1.8,0-2.6-1.2-2.7-2.9c0-1.7,1.1-2.9,2.6-2.9
						c2,0,2.6,1.8,2.5,3.2h-4.2c0,1,0.5,1.8,1.7,1.8c0.8,0,1.3-0.4,1.4-1.1H798.7z M797.8,539.6c-0.1-0.9-0.7-1.6-1.6-1.6
						c-0.9,0-1.5,0.7-1.6,1.6H797.8z"/>
					<path fill="#C8D2D2" d="M799.7,535.2h0.9v7.7h-0.9V535.2z"/>
					<path fill="#C8D2D2" d="M801.8,535.2h0.9v7.7h-0.9V535.2z"/>
					<path fill="#C8D2D2" d="M806.4,537.2c1.8,0,2.7,1.3,2.7,2.9c0,1.6-0.9,2.9-2.7,2.9s-2.7-1.3-2.7-2.9S804.6,537.2,806.4,537.2z
						 M806.4,542.2c1,0,1.7-0.8,1.7-2.1s-0.8-2.1-1.7-2.1c-1,0-1.7,0.8-1.7,2.1C804.6,541.5,805.4,542.2,806.4,542.2z"/>
					<path fill="#C8D2D2" d="M810.2,541.7h1.2v1.2h-1.2V541.7z M811.3,537.6l-0.3,3.3h-0.5l-0.3-3.4v-2.4h1L811.3,537.6L811.3,537.6
						z"/>
				</g>
				<polygon fill="#ECF0F2" points="846,586 846,575.5 833.1,586 752,586 752,625 859,625 859,586 				"/>
				<g>
					<path fill="#C8D2D2" d="M785.5,601.3h2.8c0.7,0,1.6,0,2,0.3c0.5,0.3,0.9,0.8,0.9,1.6s-0.4,1.4-1.1,1.7l0,0
						c0.9,0.2,1.5,0.9,1.5,1.9c0,1.1-0.8,2.2-2.3,2.2h-3.7v-7.7H785.5z M786.6,604.6h2.1c1.2,0,1.6-0.4,1.6-1.2
						c0-1.1-0.7-1.2-1.6-1.2h-2.1V604.6z M786.6,608.1h2.6c0.9,0,1.4-0.5,1.4-1.4c0-1-0.8-1.3-1.7-1.3h-2.3V608.1z"/>
					<path fill="#C8D2D2" d="M795.1,603.3c1.8,0,2.7,1.3,2.7,2.9c0,1.6-0.9,2.9-2.7,2.9s-2.7-1.3-2.7-2.9
						C792.4,604.6,793.3,603.3,795.1,603.3z M795.1,608.3c1,0,1.7-0.8,1.7-2.1s-0.8-2.1-1.7-2.1c-1,0-1.7,0.8-1.7,2.1
						C793.4,607.6,794.1,608.3,795.1,608.3z"/>
					<path fill="#C8D2D2" d="M798.7,603.4h0.9v0.9l0,0c0.4-0.7,1-1,1.8-1c1.5,0,1.9,0.8,1.9,2v3.7h-0.9v-3.8c0-0.7-0.4-1.1-1.1-1.1
						c-1.1,0-1.7,0.7-1.7,1.7v3.2h-0.9V603.4z"/>
					<path fill="#C8D2D2" d="M805.4,609.7c0,1-0.5,1.4-1.3,1.4c-0.2,0-0.3,0-0.5,0v-0.8c0.1,0,0.1,0,0.2,0h0.2
						c0.4,0,0.5-0.2,0.5-0.8v-6.1h0.9L805.4,609.7L805.4,609.7z M805.4,602.4h-0.9v-1.1h0.9V602.4z"/>
					<path fill="#C8D2D2" d="M809.1,603.3c1.8,0,2.7,1.3,2.7,2.9c0,1.6-0.9,2.9-2.7,2.9s-2.7-1.3-2.7-2.9
						C806.4,604.6,807.3,603.3,809.1,603.3z M809.1,608.3c1,0,1.7-0.8,1.7-2.1s-0.8-2.1-1.7-2.1c-1,0-1.7,0.8-1.7,2.1
						C807.4,607.6,808.1,608.3,809.1,608.3z"/>
					<path fill="#C8D2D2" d="M817.3,609h-0.9v-0.9l0,0c-0.4,0.7-1,1-1.8,1c-1.5,0-1.9-0.8-1.9-2v-3.7h0.9v3.8c0,0.7,0.4,1.1,1.1,1.1
						c1.1,0,1.7-0.7,1.7-1.7v-3.2h0.9V609z"/>
					<path fill="#C8D2D2" d="M818.5,603.4h0.9v1.2l0,0c0.4-0.9,1.1-1.3,2.1-1.3v1c-1.5,0-2,0.8-2,2.3v2.5h-0.9L818.5,603.4
						L818.5,603.4z"/>
					<path fill="#C8D2D2" d="M822.1,607.8h1.2v1.2h-1.2V607.8z M823.2,603.7l-0.3,3.4h-0.5l-0.3-3.4v-2.4h1L823.2,603.7L823.2,603.7
						z"/>
				</g>
				<polygon fill="#ECF0F2" points="1223,336 1143,336 1143,363 1153,363 1153,369.5 1162.7,363 1223,363 				"/>
				<polygon fill="#ECF0F2" points="1213,380 1213,373.6 1203.3,380 1143,380 1143,407 1223,407 1223,380 				"/>
				<g>
					<path fill="#C8D2D2" d="M1173.9,390.5h0.8v2.5h3v-2.5h0.8v5.7h-0.8v-2.6h-3v2.6h-0.8V390.5z"/>
					<path fill="#C8D2D2" d="M1182.9,394.9c-0.2,0.9-0.8,1.4-1.8,1.4c-1.3,0-1.9-0.9-2-2.2c0-1.2,0.8-2.2,1.9-2.2
						c1.5,0,1.9,1.4,1.9,2.4h-3.1c0,0.7,0.4,1.4,1.3,1.4c0.6,0,1-0.3,1.1-0.8L1182.9,394.9L1182.9,394.9z M1182.3,393.7
						c0-0.6-0.5-1.2-1.2-1.2s-1.1,0.5-1.2,1.2H1182.3z"/>
					<path fill="#C8D2D2" d="M1183.7,390.5h0.7v5.7h-0.7V390.5z"/>
					<path fill="#C8D2D2" d="M1185.3,390.5h0.7v5.7h-0.7V390.5z"/>
					<path fill="#C8D2D2" d="M1188.6,392c1.3,0,2,1,2,2.2s-0.7,2.2-2,2.2s-2-1-2-2.2C1186.6,392.9,1187.3,392,1188.6,392z
						 M1188.6,395.7c0.7,0,1.3-0.6,1.3-1.6s-0.6-1.6-1.3-1.6s-1.3,0.6-1.3,1.6S1187.9,395.7,1188.6,395.7z"/>
					<path fill="#C8D2D2" d="M1191.4,395.3h0.9v0.9h-0.9V395.3z M1192.3,392.3l-0.2,2.5h-0.4l-0.2-2.5v-1.8h0.8L1192.3,392.3
						L1192.3,392.3z"/>
				</g>
				<g>
					<path fill="#C8D2D2" d="M1165.4,346.5c0.1,0,0.2-0.1,0.2-0.2c0,0,0-0.1-0.1-0.2s-0.1-0.1-0.1-0.1s0,0,0.1,0
						c0.2,0,0.5,0.1,0.5,0.3c0,0.1-0.1,0.2-0.1,0.3c0.9,0.2,1.3,0.8,1.3,1.4c0,0.7-0.6,1.4-1.7,1.4s-1.8-0.7-1.8-1.4
						C1163.8,347.3,1164.3,346.7,1165.4,346.5z M1164.3,347.9c0,0.5,0.4,1.1,1.2,1.1c0.8,0,1.2-0.5,1.2-1.1c0-0.5-0.4-1.1-1.2-1.1
						C1164.8,346.8,1164.3,347.4,1164.3,347.9z M1166,350.7c0-0.2-0.2-0.2-0.6-0.3c-0.1,0-0.2-0.1-0.2-0.1s0.1-0.1,0.3-0.1
						c0.4,0,0.7,0,0.8,0.1c0.1,0,0.2,0.1,0.2,0.2s0,0.1,0,0.2c0,0.4,0,0.8,0,1.1c0,0.2,0.1,0.3,0.4,0.3h1.4c0.6,0,0.3-0.2,1-0.2
						c0.3,0,0.6,0,0.6,0.3c0,0.1-0.1,0.2-0.2,0.2h-2.9c-0.5,0-0.8-0.1-0.9-0.5L1166,350.7z M1168.7,345.9c0-0.1-0.2-0.2-0.7-0.4
						c-0.1,0-0.2-0.1-0.2-0.1s0.1-0.1,0.3-0.1c0,0,1.1,0.1,1.1,0.4c0,0.1,0,0.1,0,0.2v2.5c0.1,0,0.2,0,0.4,0
						c0.4-0.1,0.2-0.2,0.8-0.2c0.2,0,0.5,0,0.5,0.2c0,0.1-0.1,0.2-0.2,0.2h-1.4c0,1.4-0.1,1.8-0.1,2c-0.1,0.2-0.2,0.3-0.2,0.3
						s-0.1-0.1-0.1-0.4v-4.6H1168.7z"/>
					<path fill="#C8D2D2" d="M1172.4,346.7c0-0.2-0.3-0.3-0.6-0.3c-0.1,0-0.2-0.1-0.2-0.1s0.1-0.1,0.2-0.1c1,0,1.1,0.1,1.1,0.3v0.1
						v1.9c0,0.1,0,0.2,0.3,0.2s1.6-0.3,2.4-0.8c0.1,0,0.1,0,0.2,0l0,0c0,0,0,0.1-0.1,0.2c-1,0.7-2.6,1.2-2.8,1.2
						c-0.2,0-0.3-0.4-0.4-0.6L1172.4,346.7z M1175.8,349.8c0.1,0,0.1-0.1,0.1-0.1s0-0.1-0.1-0.2s-0.1-0.1-0.1-0.1s0,0,0.1,0
						s0.5,0.1,0.5,0.2s-0.1,0.1-0.1,0.2c0.9,0.1,1.3,0.7,1.3,1.3c0,0.7-0.6,1.4-1.6,1.4s-1.6-0.7-1.6-1.4
						C1174.3,350.5,1174.8,349.9,1175.8,349.8L1175.8,349.8z M1174.8,351.1c0,0.5,0.4,1,1.2,1c0.7,0,1.1-0.5,1.1-1s-0.4-1-1.1-1
						C1175.2,350,1174.8,350.5,1174.8,351.1z M1177.1,345.9c0-0.1-0.3-0.3-0.7-0.4c-0.1,0-0.2-0.1-0.2-0.1c0-0.1,0.2-0.1,0.2-0.1
						c0.2,0,1.2,0.2,1.2,0.4c0,0.1,0,0.1-0.1,0.2v2.2c0,1.3-0.1,1.6-0.3,1.8l-0.1,0.1c-0.1,0-0.1-0.2-0.1-0.5v-0.9
						c-0.4,0-0.7,0-1,0.1c-0.1,0-0.2,0.1-0.3,0.1c-0.1,0-0.7-0.2-0.7-0.3c0,0,0,0,0.1,0s0.5,0,0.5,0c0.4,0,0.8,0,1.3-0.1v-1.5
						c-0.5,0-0.8,0-1,0s-0.2,0.1-0.3,0.1c-0.1,0-0.6-0.2-0.6-0.3c0,0,0,0,0.1,0c0,0,0.1,0,0.2,0c0.2,0,0.3,0,0.5,0
						c0.4,0,0.7,0,1.2,0v-0.8H1177.1z"/>
					<path fill="#C8D2D2" d="M1182.5,347.4c0.7,0,0.3-0.2,1.2-0.2c0.4,0,0.5,0.1,0.5,0.2c0,0,0,0.2-0.3,0.2c-0.5,0-2,0.1-3,0.1
						c-0.3,0.1-0.3,0.2-0.5,0.2s-0.8-0.3-0.8-0.4c0,0,0,0,0.1,0h0.1c0.4,0,0.8,0.1,1.2,0.1C1181.3,347.4,1182.3,347.4,1182.5,347.4z
						 M1181.6,348.4c0.1,0,0.3,0,0.3-0.2c0,0,0-0.1-0.1-0.1l-0.1-0.1c0,0,0,0,0.1,0c0.2,0,0.4,0.2,0.4,0.3c0,0.1-0.1,0.1-0.1,0.2
						c0.9,0.1,1.4,0.7,1.4,1.3c0,0.6-0.6,1.3-1.6,1.3c-1.1,0-1.6-0.7-1.6-1.3C1180.3,349.1,1180.7,348.5,1181.6,348.4z
						 M1181.6,346.6c-0.2,0-0.8-0.4-0.8-0.5c0,0,0,0,0.1,0c0,0,0.1,0,0.2,0c0.6,0.1,1,0.1,1.7,0.1c0.2,0,0.3,0.1,0.3,0.2
						s-0.2,0.2-0.5,0.2L1181.6,346.6z M1180.8,349.6c0,0.5,0.4,1,1.1,1s1.1-0.5,1.1-1s-0.4-1-1.1-1S1180.8,349.1,1180.8,349.6z
						 M1184.7,345.9c0-0.1-0.4-0.3-0.8-0.5c-0.1,0-0.1-0.1-0.1-0.1s0.1-0.1,0.3-0.1c0.3,0.1,0.7,0.1,0.9,0.2
						c0.2,0.1,0.2,0.1,0.2,0.2s0,0.1,0,0.3v2.9h0.4c0.4-0.1,0.2-0.2,0.8-0.2c0.2,0,0.5,0,0.5,0.2c0,0.1-0.1,0.2-0.3,0.2h-1.4v2.3
						c0,0.5-0.1,0.8-0.2,1.2c-0.1,0.1-0.1,0.1-0.2,0.1s-0.1-0.1-0.1-0.4L1184.7,345.9L1184.7,345.9z"/>
					<path fill="#C8D2D2" d="M1189.8,347.2c0-0.1-0.2-0.2-0.5-0.4c-0.2-0.1-0.2-0.2,0.1-0.2c0.1,0,1,0.3,1,0.5
						c0,0.1-0.6,1.3-0.7,1.3c0.1,0.2,0.3,0.4,0.4,0.5c0.3,0.3,0.5,0.2,0.7,1c0,0,0,0,0,0.1c0,0.2-0.1,0.3-0.2,0.3s-0.1,0-0.2-0.2
						c-0.2-0.3-0.5-0.9-0.9-1.5c-0.8,1-1.7,1.8-2,1.8l0,0c0,0,0.1-0.1,0.2-0.2C1188.5,349.5,1189.3,348.6,1189.8,347.2L1189.8,347.2
						z M1192.1,346.5c0-0.2-0.3-0.4-0.6-0.5c-0.1,0-0.2-0.1-0.2-0.1s0.1-0.1,0.3-0.1c0.3,0,0.6,0.1,0.8,0.2c0.2,0.1,0.2,0.1,0.2,0.2
						s0,0.1,0,0.2v4.3c0,1-0.2,1.3-0.3,1.3c-0.1,0-0.1-0.2-0.1-0.6v-3h-0.7c-0.2,0-0.3,0.1-0.4,0.1s-0.6-0.2-0.6-0.3c0,0,0,0,0.1,0
						s0.3,0,0.4,0c0.4,0,0.8,0,1.2,0v-1.7H1192.1z M1193.3,345.9c0-0.1-0.3-0.3-0.6-0.5c-0.1,0-0.2-0.1-0.2-0.1s0.1-0.1,0.3-0.1
						c0.4,0.1,0.7,0.2,0.9,0.2c0.1,0.1,0.2,0.1,0.2,0.2s0,0.1,0,0.2v5.7c0,0.7-0.2,1.1-0.3,1.2c-0.1,0-0.1-0.1-0.2-0.5v-6.3H1193.3z
						"/>
					<path fill="#C8D2D2" d="M1202.3,351.5c-0.5,0-1.2,0-1.9,0c-1.3,0-2.8,0.1-3.5,0.1c-0.2,0.1-0.2,0.1-0.4,0.1c-0.2,0-1-0.4-1-0.5
						c0,0,0,0,0.1,0h0.1c0.6,0.1,1.3,0.1,2.1,0.1c0-0.2,0-0.6-0.1-0.8c0-0.1-0.1-0.2-0.5-0.3c-0.1,0-0.1,0-0.1-0.1
						c0,0,0.1-0.1,0.2-0.1c0.8,0.1,0.9,0.1,0.9,0.3v0.1c0,0.1,0,0.8,0,0.9c0.3,0,1.2,0,1.7,0c0-0.2,0.1-0.5,0.1-1
						c0-0.2-0.2-0.2-0.4-0.3c-0.1,0-0.1,0-0.1-0.1c0,0,0.1-0.1,0.2-0.1c0.7,0.1,0.9,0.2,0.9,0.3c0,0.1-0.1,0.1-0.1,0.2
						c0,0.2-0.1,0.7-0.2,1c0.2,0,0.5,0,0.7-0.1c0.3,0,0.2-0.2,0.6-0.2c0.2,0,0.9,0,0.9,0.3C1202.6,351.4,1202.6,351.5,1202.3,351.5
						L1202.3,351.5z M1198.7,346.2c0.1,0,0.2-0.1,0.2-0.2c0,0,0-0.1-0.1-0.1c-0.1-0.1-0.1-0.1-0.1-0.1s0,0,0.1,0
						c0.3,0,0.5,0.2,0.5,0.3c0,0.1-0.1,0.2-0.1,0.3c1.1,0.2,1.7,0.9,1.7,1.6c0,0.8-0.7,1.6-1.9,1.6s-1.9-0.8-1.9-1.6
						C1197.2,347.1,1197.7,346.4,1198.7,346.2z M1197.6,347.8c0,0.6,0.5,1.3,1.4,1.3s1.4-0.6,1.4-1.3s-0.5-1.3-1.4-1.3
						S1197.6,347.2,1197.6,347.8z"/>
				</g>
				<polygon fill="#ECF0F2" points="1116,513 1116,607 1146,607 1146,631.2 1177.1,607 1371,607 1371,513 				"/>
				<polygon fill="#ECF0F2" points="1341,670 1341,645.9 1309.9,670 1116,670 1116,764 1371,764 1371,670 				"/>
				<g>
					<path fill="#C8D2D2" d="M1192.6,552.2c0.4-0.1,0.7-0.2,0.7-0.5c0-0.1-0.1-0.3-0.2-0.5c-0.2-0.2-0.3-0.3-0.3-0.4
						c0-0.1,0.1-0.1,0.3-0.1c0.7,0,1.5,0.4,1.5,0.7s-0.3,0.5-0.3,0.8c2.7,0.6,3.8,2.3,3.8,4c0,2.1-1.8,4.1-4.8,4.1
						c-3.2,0-5-1.9-5-4.1C1188.3,554.4,1189.6,552.6,1192.6,552.2z M1189.7,556.2c0,1.6,1.2,3.1,3.5,3.1s3.4-1.5,3.4-3.1
						c0-1.5-1.2-3.1-3.4-3.1C1190.9,553.1,1189.7,554.7,1189.7,556.2z M1194.4,564.2c0-0.4-0.6-0.6-1.7-1c-0.3-0.1-0.4-0.2-0.4-0.3
						s0.2-0.2,0.7-0.3c1.1,0,2,0.1,2.4,0.2c0.4,0.1,0.5,0.2,0.5,0.4s0,0.3-0.1,0.6c0,1,0,2.4,0,3.2c0,0.5,0.3,0.7,1.1,0.8h4.2
						c1.7-0.1,0.9-0.7,2.9-0.7c0.8,0,1.7,0.1,1.7,0.8c0,0.3-0.2,0.5-0.6,0.5h-8.3c-1.5,0-2.4-0.4-2.5-1.5L1194.4,564.2z
						 M1202.2,550.5c0-0.3-0.6-0.7-2-1.3c-0.3-0.1-0.5-0.3-0.5-0.3c0-0.1,0.3-0.2,0.8-0.3c0.1,0,3.2,0.4,3.2,1.1
						c0,0.2-0.1,0.3-0.1,0.6v7.2c0.3,0,0.7,0,1,0c1.1-0.2,0.6-0.6,2.3-0.6c0.5,0,1.3,0,1.3,0.6c0,0.3-0.3,0.6-0.7,0.6l-4,0.1
						c0,4.2-0.2,5.2-0.4,5.8c-0.2,0.4-0.5,0.8-0.7,0.8s-0.3-0.3-0.4-1v-13.3H1202.2z"/>
					<path fill="#C8D2D2" d="M1212.9,552.8c0-0.4-0.9-0.7-1.8-1c-0.2-0.1-0.5-0.2-0.5-0.3s0.2-0.2,0.7-0.4c2.7,0.1,3,0.4,3,0.8
						c0,0.1,0,0.2,0,0.4v5.3c0,0.3,0.1,0.5,0.7,0.5c0.9,0,4.5-0.9,6.9-2.3c0.2-0.1,0.4-0.1,0.5-0.1h0.1c0,0.1-0.1,0.2-0.4,0.4
						c-2.8,1.9-7.3,3.3-8.1,3.3c-0.7,0-1-1.2-1.1-1.7L1212.9,552.8z M1222.5,561.6c0.2,0,0.4-0.2,0.4-0.4c0-0.1-0.1-0.3-0.2-0.4
						s-0.2-0.3-0.2-0.3c0-0.1,0.1-0.1,0.2-0.1c0.4,0,1.4,0.4,1.4,0.7c0,0.2-0.2,0.4-0.2,0.7c2.6,0.4,3.7,2,3.7,3.7
						c0,1.9-1.7,3.9-4.5,3.9c-3,0-4.6-2-4.6-3.9c0-1.7,1.2-3.4,3.9-3.7L1222.5,561.6z M1219.7,565.3c0,1.5,1.1,3,3.4,3
						c2.1,0,3.1-1.5,3.1-3s-1-3-3.1-3C1220.8,562.3,1219.7,563.8,1219.7,565.3z M1226.2,550.4c0-0.2-1-0.8-2-1.3
						c-0.2-0.1-0.6-0.2-0.6-0.3c0-0.2,0.6-0.3,0.7-0.3c0.5,0,3.6,0.5,3.6,1.2c0,0.2-0.1,0.4-0.2,0.7v6.4c0,3.9-0.3,4.6-0.8,5.2
						c-0.1,0.1-0.2,0.2-0.3,0.2c-0.2,0-0.4-0.5-0.4-1.4v-2.7c-1.1,0-2.1,0.1-2.9,0.2c-0.4,0.1-0.5,0.3-0.8,0.3c-0.4,0-2-0.7-2-0.9
						c0-0.1,0.1-0.1,0.4-0.1c0.2,0,1.3,0,1.6,0c1.1,0,2.2-0.1,3.7-0.2v-4c-1.4,0-2.4,0.1-2.9,0.1c-0.6,0.1-0.6,0.3-0.9,0.3
						s-1.9-0.6-1.9-0.9c0-0.1,0.1-0.1,0.3-0.1c0.1,0,0.3,0,0.4,0c0.5,0,1,0,1.4,0c1.1,0,2,0,3.5-0.1v-2.3H1226.2z"/>
					<path fill="#C8D2D2" d="M1241.9,554.7c1.9-0.1,0.9-0.6,3.3-0.7c1.1,0,1.5,0.4,1.5,0.7c0,0,0,0.5-0.9,0.5
						c-1.4,0.1-5.7,0.2-8.5,0.3c-0.7,0.2-0.9,0.4-1.4,0.4c-0.6,0-2.4-0.9-2.4-1.2c0-0.1,0.1-0.1,0.3-0.1c0.1,0,0.2,0,0.3,0
						c1.1,0.1,2.3,0.2,3.5,0.2C1238.3,554.8,1241.2,554.7,1241.9,554.7z M1239.4,557.6c0.3-0.1,0.7-0.1,0.7-0.5c0-0.1,0-0.2-0.2-0.3
						c-0.1-0.1-0.2-0.2-0.2-0.3s0.1-0.1,0.3-0.1c0.6,0,1.2,0.4,1.2,0.7c0,0.2-0.2,0.4-0.3,0.6c2.7,0.4,4,2,4,3.6
						c0,1.8-1.6,3.7-4.6,3.7c-3.1,0-4.6-1.9-4.6-3.7C1235.7,559.5,1236.9,557.9,1239.4,557.6z M1239.3,552.4c-0.7,0-2.4-1.2-2.4-1.5
						c0-0.1,0.1-0.1,0.2-0.1s0.3,0,0.5,0.1c1.7,0.3,3,0.3,4.8,0.3c0.6,0,0.9,0.3,0.9,0.6s-0.4,0.6-1.5,0.6L1239.3,552.4z
						 M1237.1,561c0,1.4,1.1,2.8,3.2,2.8c2.2,0,3.2-1.4,3.2-2.8c0-1.4-1.1-2.8-3.2-2.8C1238.1,558.2,1237.1,559.6,1237.1,561z
						 M1248.2,550.3c0-0.4-1.3-0.9-2.2-1.4c-0.3-0.1-0.4-0.2-0.4-0.3s0.3-0.3,1-0.3c1,0.2,1.9,0.4,2.6,0.6c0.5,0.2,0.6,0.3,0.6,0.6
						c0,0.2-0.1,0.4-0.1,0.7v8.4h1.1c1.1-0.2,0.7-0.6,2.2-0.6c0.4,0,1.4,0,1.4,0.7c0,0.3-0.3,0.6-0.8,0.6h-4v6.7
						c0,1.5-0.2,2.4-0.6,3.4c-0.2,0.3-0.4,0.4-0.5,0.4c-0.2,0-0.3-0.3-0.3-1.1L1248.2,550.3L1248.2,550.3z"/>
					<path fill="#C8D2D2" d="M1262.9,554.1c0-0.3-0.6-0.7-1.4-1.2c-0.4-0.2-0.6-0.5,0.3-0.5c0.4,0,2.7,0.8,2.7,1.4
						c0,0.3-1.7,3.6-1.9,3.9c0.4,0.6,0.9,1.1,1.2,1.5c0.8,1,1.6,0.7,1.9,2.9c0,0.1,0,0.1,0,0.2c0,0.4-0.2,0.7-0.5,0.7
						c-0.2,0-0.4-0.1-0.6-0.5c-0.5-0.9-1.3-2.6-2.5-4.4c-2.3,3-5,5.3-5.7,5.3c0,0-0.1,0-0.1-0.1s0.2-0.3,0.5-0.5
						c2.1-1.9,4.4-4.6,5.8-8.6L1262.9,554.1z M1269.3,552.2c0-0.6-0.9-1-1.8-1.4c-0.3-0.1-0.6-0.3-0.6-0.4c0-0.1,0.2-0.2,0.8-0.2
						c0.8,0.1,1.7,0.4,2.4,0.6c0.5,0.2,0.6,0.4,0.6,0.6c0,0.2-0.1,0.4-0.1,0.6v12.4c0,3-0.6,3.8-0.9,3.8s-0.4-0.6-0.4-1.7v-8.6
						l-2.1,0.1c-0.7,0.1-0.8,0.3-1.1,0.3c-0.3,0-1.7-0.6-1.7-0.9c0-0.1,0.1-0.1,0.4-0.1c0.2,0,0.9,0,1.1,0c1.2,0,2.3-0.1,3.4-0.1
						L1269.3,552.2L1269.3,552.2z M1273.1,550.6c0-0.4-0.9-1-1.8-1.5c-0.3-0.1-0.5-0.3-0.5-0.4c0-0.1,0.2-0.2,0.8-0.2
						c1.1,0.2,2,0.6,2.6,0.7c0.4,0.2,0.5,0.3,0.5,0.5s-0.1,0.3-0.1,0.6v16.3c-0.1,2.1-0.5,3.3-0.9,3.4c-0.2,0-0.4-0.2-0.4-1.4v-18
						H1273.1z"/>
					<path fill="#C8D2D2" d="M1298.9,566.6c-1.5-0.1-3.4-0.1-5.4-0.1c-3.8,0-7.9,0.2-10.1,0.4c-0.5,0.2-0.6,0.4-1,0.4
						c-0.6,0-3-1.1-3-1.4c0-0.1,0.1-0.1,0.3-0.1c0.1,0,0.2,0,0.3,0c1.6,0.2,3.8,0.3,6.1,0.3c-0.1-0.5-0.1-1.7-0.2-2.4
						c-0.1-0.3-0.4-0.5-1.5-0.9c-0.2,0-0.4-0.1-0.4-0.2c0-0.1,0.2-0.2,0.7-0.3c2.4,0.2,2.7,0.4,2.7,0.7c0,0.1,0,0.3,0,0.4
						c0,0.2,0,2.2,0.1,2.6c0.8,0,3.3,0,4.9-0.1c0.1-0.5,0.2-1.6,0.2-3c0-0.5-0.5-0.7-1.1-1c-0.2,0-0.3-0.1-0.3-0.2
						c0-0.1,0.2-0.2,0.7-0.3c2,0.3,2.5,0.6,2.5,0.8s-0.2,0.4-0.3,0.7c-0.1,0.7-0.3,2-0.6,2.9c0.5,0,1.3,0,2.1-0.2
						c0.8,0,0.6-0.4,1.8-0.4c0.6,0,2.5,0,2.5,0.9c0,0.3-0.2,0.5-0.7,0.5L1298.9,566.6L1298.9,566.6z M1288.6,551.3
						c0.3,0,0.6-0.2,0.6-0.6c0-0.1,0-0.3-0.2-0.4c-0.2-0.2-0.3-0.3-0.3-0.4c0-0.1,0.1-0.1,0.3-0.1c0.8,0,1.4,0.5,1.4,0.7
						c0,0.3-0.3,0.5-0.4,0.8c3.3,0.5,4.8,2.6,4.8,4.6c0,2.3-2,4.6-5.4,4.6s-5.4-2.4-5.4-4.7C1284.1,553.8,1285.5,551.8,1288.6,551.3
						z M1285.4,555.9c0,1.8,1.4,3.6,4.1,3.6s4-1.8,4-3.6s-1.4-3.6-4-3.6C1286.8,552.2,1285.4,554.1,1285.4,555.9z"/>
				</g>
				<g>
					<path fill="#C8D2D2" d="M1209.2,708h2.5v8h9.7v-8h2.5v18.5h-2.5V718h-9.7v8.5h-2.5V708z"/>
					<path fill="#C8D2D2" d="M1238.5,722.2c-0.6,3-2.7,4.6-5.7,4.6c-4.3,0-6.3-3-6.4-7c0-4,2.6-7,6.3-7c4.7,0,6.2,4.4,6.1,7.7h-10
						c-0.1,2.3,1.2,4.4,4.2,4.4c1.8,0,3.1-0.9,3.5-2.6h2V722.2z M1236.4,718.5c-0.1-2.1-1.7-3.8-3.9-3.8c-2.3,0-3.7,1.7-3.8,3.8
						H1236.4z"/>
					<path fill="#C8D2D2" d="M1241,708h2.2v18.5h-2.2V708z"/>
					<path fill="#C8D2D2" d="M1246.1,708h2.2v18.5h-2.2V708z"/>
					<path fill="#C8D2D2" d="M1257,712.8c4.2,0,6.5,3.1,6.5,7s-2.3,7-6.5,7s-6.5-3.1-6.5-7S1252.8,712.8,1257,712.8z M1257,724.9
						c2.3,0,4.2-1.8,4.2-5.1c0-3.2-1.9-5.1-4.2-5.1c-2.3,0-4.2,1.8-4.2,5.1C1252.9,723,1254.7,724.9,1257,724.9z"/>
					<path fill="#C8D2D2" d="M1266.1,723.6h2.9v2.9h-2.9V723.6z M1268.8,713.7l-0.6,8.1h-1.2l-0.6-8.1V708h2.5v5.7H1268.8z"/>
				</g>
				<polygon fill="#ECF0F2" points="1337,-56 1000,-56 1000,68 1039,68 1039,99.6 1080,68 1337,68 				"/>
				<g>
					<path fill="#C8D2D2" d="M1108.2-8.8h3.3V1.7h12.9V-8.8h3.3v24.4h-3.3V4.5h-12.9v11.2h-3.3V-8.8z"/>
					<path fill="#C8D2D2" d="M1146.9,10.1c-0.8,3.9-3.6,6-7.6,6c-5.6,0-8.3-3.9-8.5-9.3c0-5.3,3.5-9.2,8.3-9.2c6.3,0,8.2,5.9,8,10.1
						h-13.2c-0.1,3.1,1.6,5.8,5.5,5.8c2.4,0,4.1-1.1,4.6-3.5L1146.9,10.1L1146.9,10.1z M1144.1,5.1c-0.2-2.8-2.2-5-5.1-5
						c-3,0-4.9,2.3-5.1,5H1144.1z"/>
					<path fill="#C8D2D2" d="M1150.2-8.8h2.9v24.4h-2.9V-8.8z"/>
					<path fill="#C8D2D2" d="M1156.9-8.8h2.9v24.4h-2.9V-8.8z"/>
					<path fill="#C8D2D2" d="M1171.4-2.4c5.6,0,8.6,4.1,8.6,9.3s-3,9.2-8.6,9.2s-8.6-4.1-8.6-9.2C1162.8,1.6,1165.8-2.4,1171.4-2.4z
						 M1171.4,13.5c3,0,5.5-2.4,5.5-6.7s-2.5-6.7-5.5-6.7s-5.5,2.4-5.5,6.7S1168.3,13.5,1171.4,13.5z"/>
					<path fill="#C8D2D2" d="M1183.3,11.9h3.8v3.8h-3.8V11.9z M1186.9-1.2L1186,9.4h-1.5l-0.9-10.6v-7.5h3.3V-1.2z"/>
				</g>
				<polygon fill="#ECF0F2" points="1297,151 1297,119 1256,151 1000,151 1000,275 1337,275 1337,151 				"/>
				<g>
					<path fill="#C8D2D2" d="M1121.2,200.8h3.5v11.4h13.9v-11.4h3.5v26.4h-3.5v-12.1h-13.9v12.1h-3.5V200.8z"/>
					<path fill="#C8D2D2" d="M1155.1,207.6c6.1,0,9.3,4.4,9.3,10s-3.2,10-9.3,10s-9.3-4.4-9.3-10
						C1145.8,212,1149.1,207.6,1155.1,207.6z M1155.1,224.9c3.3,0,6-2.6,6-7.2c0-4.6-2.7-7.3-6-7.3s-6,2.6-6,7.3
						C1149.2,222.3,1151.8,224.9,1155.1,224.9z"/>
					<path fill="#C8D2D2" d="M1167.6,200.8h3.1v26.4h-3.1V200.8z"/>
					<path fill="#C8D2D2" d="M1191.9,227.1c-0.6,0.3-1.3,0.5-2.3,0.5c-1.6,0-2.7-0.9-2.7-3c-1.7,2.1-4.1,3-6.7,3
						c-3.5,0-6.3-1.5-6.3-5.4c0-4.3,3.2-5.3,6.5-5.9c3.4-0.7,6.4-0.4,6.4-2.8c0-2.8-2.3-3.2-4.3-3.2c-2.7,0-4.6,0.8-4.8,3.6h-3.1
						c0.2-4.7,3.8-6.4,8.1-6.4c3.4,0,7.2,0.8,7.2,5.3v9.8c0,1.5,0,2.1,1,2.1c0.3,0,0.6-0.1,1-0.2L1191.9,227.1L1191.9,227.1z
						 M1186.8,217.3c-2.4,1.8-9.5,0-9.5,4.7c0,2.1,1.8,2.8,3.7,2.8c4.1,0,5.8-2.6,5.8-4.3V217.3z"/>
					<path fill="#C8D2D2" d="M1195,223.1h4.1v4.1h-4.1V223.1z M1198.8,208.9l-0.9,11.5h-1.7l-0.9-11.5v-8.1h3.5V208.9z"/>
					<path fill="#C8D2D2" d="M1117,212.4h-4.1v-4.1h4.1V212.4z M1113.2,226.6l0.9-11.5h1.7l0.9,11.5v8.1h-3.5V226.6z"/>
				</g>
				<polygon fill="#ECF0F2" points="477,50 477,25.9 445.9,50 252,50 252,144 507,144 507,50 				"/>
				<path fill="#C8D2D2" d="M331.8,87.8h6.7c1.6,0,3.8,0,4.9,0.7c1.2,0.7,2.2,2,2.2,3.9c0,2-1,3.4-2.7,4.1v0.1
					c2.3,0.5,3.5,2.2,3.5,4.5c0,2.7-2,5.3-5.6,5.3h-8.9V87.8H331.8z M334.3,95.7h4.9c2.8,0,3.9-1,3.9-3c0-2.6-1.8-2.9-3.9-2.9h-4.9
					V95.7z M334.3,104.2h6.2c2.1,0,3.5-1.3,3.5-3.3c0-2.4-1.9-3.1-4-3.1h-5.6v6.4H334.3z"/>
				<path fill="#C8D2D2" d="M354.8,92.6c4.2,0,6.5,3.1,6.5,7s-2.3,7-6.5,7s-6.5-3.1-6.5-7C348.3,95.7,350.5,92.6,354.8,92.6z
					 M354.8,104.7c2.3,0,4.2-1.8,4.2-5.1c0-3.2-1.9-5.1-4.2-5.1c-2.3,0-4.2,1.8-4.2,5.1C350.6,102.8,352.5,104.7,354.8,104.7z"/>
				<path fill="#C8D2D2" d="M363.4,92.9h2.1V95h0.1c0.9-1.7,2.4-2.4,4.4-2.4c3.5,0,4.6,2,4.6,4.9v8.8h-2.2v-9.1c0-1.7-1-2.7-2.7-2.7
					c-2.7,0-4,1.8-4,4.2v7.6h-2.2L363.4,92.9L363.4,92.9z"/>
				<path fill="#C8D2D2" d="M379.5,108c0,2.4-1.2,3.4-3.2,3.4c-0.4,0-0.8,0-1.1-0.1v-1.9c0.2,0,0.3,0.1,0.4,0.1h0.5
					c1,0,1.2-0.5,1.2-1.8V92.9h2.2V108z M379.5,90.5h-2.2v-2.7h2.2V90.5z"/>
				<path fill="#C8D2D2" d="M388.3,92.6c4.2,0,6.5,3.1,6.5,7s-2.3,7-6.5,7s-6.5-3.1-6.5-7C381.8,95.7,384.1,92.6,388.3,92.6z
					 M388.3,104.7c2.3,0,4.2-1.8,4.2-5.1c0-3.2-1.9-5.1-4.2-5.1s-4.2,1.8-4.2,5.1C384.2,102.8,386,104.7,388.3,104.7z"/>
				<path fill="#C8D2D2" d="M408.1,106.3H406v-2.1l0,0c-0.9,1.7-2.4,2.4-4.4,2.4c-3.5,0-4.6-2-4.6-4.9v-8.8h2.2v9.1
					c0,1.7,1,2.7,2.7,2.7c2.7,0,4-1.8,4-4.2v-7.6h2.2L408.1,106.3L408.1,106.3z"/>
				<path fill="#C8D2D2" d="M410.8,92.9h2.1v2.8h0.1c1.1-2.2,2.5-3.2,4.9-3.1v2.3c-3.5,0-4.8,2-4.8,5.4v6h-2.2V92.9H410.8z"/>
				<path fill="#C8D2D2" d="M419.6,103.4h2.9v2.9h-2.9V103.4z M422.2,93.5l-0.6,8.1h-1.2l-0.6-8.1v-5.7h2.5L422.2,93.5L422.2,93.5z"
					/>
				<polygon fill="#ECF0F2" points="169,322 -86,322 -86,416 -56,416 -56,440.2 -24.9,416 169,416 				"/>
				<g>
					<path fill="#C8D2D2" d="M-4,358.2h2.5v8h9.7v-8h2.5v18.5H8.2v-8.5h-9.7v8.5H-4V358.2z"/>
					<path fill="#C8D2D2" d="M25.3,372.4c-0.6,3-2.7,4.6-5.7,4.6c-4.3,0-6.3-3-6.4-7c0-4,2.6-7,6.3-7c4.7,0,6.2,4.4,6.1,7.7h-10
						c-0.1,2.3,1.2,4.4,4.2,4.4c1.8,0,3.1-0.9,3.5-2.6h2V372.4z M23.2,368.7c-0.1-2.1-1.7-3.8-3.9-3.8c-2.3,0-3.7,1.7-3.8,3.8H23.2z
						"/>
					<path fill="#C8D2D2" d="M27.8,358.2H30v18.5h-2.2V358.2z"/>
					<path fill="#C8D2D2" d="M32.9,358.2h2.2v18.5h-2.2V358.2z"/>
					<path fill="#C8D2D2" d="M43.8,363c4.2,0,6.5,3.1,6.5,7s-2.3,7-6.5,7s-6.5-3.1-6.5-7S39.6,363,43.8,363z M43.8,375.1
						c2.3,0,4.2-1.8,4.2-5.1c0-3.2-1.9-5.1-4.2-5.1s-4.2,1.8-4.2,5.1C39.7,373.2,41.5,375.1,43.8,375.1z"/>
					<path fill="#C8D2D2" d="M52.9,373.8h2.9v2.9h-2.9V373.8z M55.6,363.9L55,372h-1.2l-0.6-8.1v-5.7h2.5v5.7H55.6z"/>
				</g>
				<polygon fill="#ECF0F2" points="139,479 139,454.9 107.9,479 -86,479 -86,573 169,573 169,479 				"/>
				<g>
					<path fill="#C8D2D2" d="M24.2,522.2c-1,1.7-2,3.3-3.1,4.7c-0.3-0.4-0.9-1.2-1.3-1.6c2.8-3.4,5.5-9.1,7.2-14.6l2.5,0.8
						c-0.1,0.3-0.4,0.4-0.7,0.3c-0.8,2.4-1.8,4.8-2.8,7.1l0.9,0.2c-0.1,0.2-0.2,0.3-0.6,0.4v19.1h-2L24.2,522.2L24.2,522.2z
						 M44.8,522.9c0.2-1.1,0.5-2.8,0.8-4.4h-6V536c0,2.2-0.8,2.5-5,2.5c-0.1-0.6-0.4-1.5-0.8-2.1c0.8,0,1.5,0,2,0H37
						c0.4,0,0.5-0.1,0.5-0.5v-17.5h-4.8c-0.9,2.2-2,4.2-3.1,5.7c-0.4-0.4-1-1-1.5-1.2c2.2-2.8,3.9-7.5,5-12.2l2.5,0.7
						c-0.1,0.2-0.3,0.3-0.7,0.3c-0.4,1.6-0.9,3.3-1.4,4.9h13.3h1c0,0.5-0.7,4.4-1.3,6.6L44.8,522.9z M35.2,523.9
						c-0.1,0.2-0.3,0.3-0.7,0.3c-1,3.7-2.6,7.6-4.5,10c-0.4-0.3-1.1-0.8-1.6-1c1.8-2.3,3.4-6.1,4.3-10L35.2,523.9z M46.1,534
						c-0.6-2.8-2.3-7.1-4.1-10.3l1.8-0.6c1.9,3.2,3.7,7.4,4.3,10.3L46.1,534z"/>
					<path fill="#C8D2D2" d="M60.4,516.9l1.1,0.3l-0.2,0.4c-0.4,5.3-1.4,9.6-2.9,12.9c1.5,1.1,2.7,2.2,3.5,3.3l-1.2,1.6
						c-0.8-1-1.9-2-3.2-3.1c-1.5,2.8-3.5,4.8-5.9,6.3c-0.3-0.5-0.8-1.2-1.3-1.7c2.2-1.2,4.1-3.1,5.6-5.8c-1.1-0.8-2.3-1.6-3.4-2.3
						l-0.4,1.3l-1.7-0.9c0.8-2.6,1.7-6.4,2.5-10.3h-3V517h3.4c0.5-2.2,0.9-4.4,1.3-6.3l2.5,0.3c0,0.2-0.2,0.3-0.6,0.4
						c-0.3,1.7-0.8,3.7-1.2,5.7H60L60.4,516.9z M55,518.9c-0.6,2.8-1.3,5.6-2,8.1c1.3,0.7,2.6,1.5,3.8,2.4c1.2-2.8,2.1-6.3,2.5-10.4
						L55,518.9L55,518.9z M77.9,524.1v1.9h-7.2v9.9c0,2.3-0.9,2.7-6.2,2.6c-0.1-0.5-0.5-1.4-0.8-2c1.4,0,2.8,0.1,3.6,0.1
						c1,0,1.3,0,1.3-0.6v-10h-7.4v-1.9h7.4V519l1,0.1c1.6-1.3,3.2-3.2,4.4-4.9H62.5v-1.9h13.1l0.4-0.1l1.6,1
						c-0.1,0.1-0.3,0.2-0.5,0.3c-1.6,2.2-4.1,5.1-6.4,6.9v3.7H77.9z"/>
				</g>
				<polygon fill="#ECF0F2" points="574,599 494,599 494,628 504,628 504,635.9 513.7,628 574,628 				"/>
				<polygon fill="#ECF0F2" points="564,648 564,640.5 554.3,648 494,648 494,677 574,677 574,648 				"/>
				<g>
					<path fill="#C8D2D2" d="M523,659.8h0.8v2.5h3v-2.5h0.8v5.7h-0.8v-2.6h-3v2.6H523V659.8z"/>
					<path fill="#C8D2D2" d="M532.1,664.2c-0.2,0.9-0.8,1.4-1.8,1.4c-1.3,0-2-0.9-2-2.2s0.8-2.2,2-2.2c1.5,0,1.9,1.4,1.9,2.4h-3.1
						c0,0.7,0.4,1.4,1.3,1.4c0.6,0,1-0.3,1.1-0.8L532.1,664.2L532.1,664.2z M531.5,663.1c0-0.7-0.5-1.2-1.2-1.2s-1.2,0.5-1.2,1.2
						H531.5z"/>
					<path fill="#C8D2D2" d="M532.9,659.8h0.7v5.7h-0.7V659.8z"/>
					<path fill="#C8D2D2" d="M534.5,659.8h0.7v5.7h-0.7V659.8z"/>
					<path fill="#C8D2D2" d="M537.9,661.3c1.3,0,2,1,2,2.2s-0.7,2.2-2,2.2s-2-1-2-2.2S536.6,661.3,537.9,661.3z M537.9,665.1
						c0.7,0,1.3-0.6,1.3-1.6s-0.6-1.6-1.3-1.6s-1.3,0.6-1.3,1.6C536.6,664.5,537.2,665.1,537.9,665.1z"/>
					<path fill="#C8D2D2" d="M540.7,664.7h0.9v0.9h-0.9V664.7z M541.5,661.6l-0.2,2.5H541l-0.2-2.5v-1.8h0.8L541.5,661.6
						L541.5,661.6z"/>
				</g>
				<g>
					<path fill="#C8D2D2" d="M526.2,613.6c-0.5,0-0.8,0.2-0.8,0.4c0,0.5,0.3,1.4,0.6,2.4c0,0.1,0.1,0.3,0.1,0.4
						c0,0.2-0.1,0.5-0.1,0.7h-0.1c0-0.6-0.4-1.5-0.7-2.5c0-0.2-0.1-0.4-0.1-0.5c0-0.2,0-0.4,0.1-0.6c0.1-0.3,0.2-0.5,0.4-0.6
						c0-0.2-0.1-0.4-0.1-0.6c0-0.2,0.1-0.5,0.3-0.6c0.1-0.1,0.3-0.2,0.4-0.2c0.2,0,0.4,0.1,0.6,0.2c0.3,0.2,0.5,0.6,0.7,0.9
						c0,0.1,0.1,0.2,0.1,0.3c0,0.2-0.1,0.4-0.2,0.5C527.1,613.6,526.7,613.6,526.2,613.6z M527.2,613c-0.3-0.4-0.6-0.7-1-0.7
						c-0.1,0-0.2,0-0.3,0.1v0.2c0,0.2-0.1,0.3-0.1,0.5c0.2-0.1,0.4-0.1,0.6-0.1S526.9,613,527.2,613L527.2,613z"/>
					<path fill="#C8D2D2" d="M530.1,612l0.3,0.6c0.1,0.2,0.2,0.5,0.2,0.9v0.5c0,0.4-0.2,0.9-0.6,1.3c-0.3,0.3-0.5,0.4-0.8,0.4
						c-0.4,0-0.8-0.1-1.2-0.4l0.1-0.2c0.1,0,0.3,0.1,0.5,0.1c0.7,0,1.3-0.6,1.7-1.3c0-0.1,0.1-0.2,0.1-0.2c0-0.1,0-0.2-0.1-0.3
						c-0.2-0.4-0.4-0.7-0.6-1C529.9,612.3,530,612.1,530.1,612L530.1,612z"/>
					<path fill="#C8D2D2" d="M533.7,612.9c-0.5-0.2-0.9-0.3-1.3-0.3c-0.3,0-0.5,0.1-0.6,0.2l0.1,0.4l-0.1,0.4h-0.1l-0.3-0.7
						c0-0.5,0.5-0.9,1-0.9c0.3,0,0.8,0.1,1.6,0.4c0.2,0.1,0.5,0.1,0.8,0.2h0.4l0,0l-0.3,0.5c-0.3,0-1,0.2-1.3,0.3
						c-1,0.4-1.8,0.9-1.8,1.6c0,1,1,1.6,2.4,1.6c0.4,0,0.8,0,1.2-0.1l0,0c-0.2,0.2-0.5,0.4-0.8,0.6c-0.2,0-0.6,0.1-0.9,0.1
						c-1.2,0-2.3-0.6-2.3-1.9C531.6,614,532.5,613.1,533.7,612.9L533.7,612.9z"/>
					<path fill="#C8D2D2" d="M538.4,614.6c-1.3,0-2.3-0.5-2.3-1.6c0-0.4,0.1-0.8,0.3-1.1l0.2,0.1c-0.1,0.3-0.1,0.5-0.1,0.7
						c0,1,0.9,1.3,2.1,1.3c0.6,0,1.1-0.1,1.6-0.2c0.2-0.1,0.4-0.1,0.6-0.2c0,0,0,0,0-0.1c0-0.2-0.2-0.7-0.5-1.2
						c0.1-0.2,0.2-0.4,0.4-0.5l0,0c0.2,0.4,0.5,1,0.5,1.4s-0.1,0.6-0.3,0.8C540.5,614.3,539.3,614.6,538.4,614.6z M538.5,615.4
						c0.2,0.1,0.4,0.3,0.6,0.5c-0.1,0.2-0.2,0.3-0.4,0.5c-0.2-0.2-0.4-0.3-0.6-0.5C538.3,615.7,538.4,615.6,538.5,615.4z"/>
					<path fill="#C8D2D2" d="M542.1,614.5c0-0.3,0.1-0.6,0.1-0.9v-0.5c0-0.9-0.1-2.1-0.2-2.9c0.1-0.2,0.3-0.4,0.5-0.5l0,0
						c0.1,1,0.1,2.2,0.1,3.3c0,0.3,0,0.6,0,0.8C542.6,614,542.4,614.2,542.1,614.5L542.1,614.5z"/>
				</g>
				<polygon fill="#ECF0F2" points="964,601 964,628 974,628 974,634.5 983.7,628 1044,628 1044,601 				"/>
				<polygon fill="#ECF0F2" points="1034,645 1034,638.6 1024.3,645 964,645 964,672 1044,672 1044,645 				"/>
				<g>
					<path fill="#C8D2D2" d="M994.9,655.5h0.8v2.5h3v-2.5h0.8v5.7h-0.8v-2.6h-3v2.6h-0.8V655.5z"/>
					<path fill="#C8D2D2" d="M1003.9,659.9c-0.2,0.9-0.8,1.4-1.8,1.4c-1.3,0-1.9-0.9-2-2.2c0-1.2,0.8-2.2,1.9-2.2
						c1.5,0,1.9,1.4,1.9,2.4h-3.1c0,0.7,0.4,1.4,1.3,1.4c0.6,0,1-0.3,1.1-0.8L1003.9,659.9L1003.9,659.9z M1003.3,658.7
						c0-0.6-0.5-1.2-1.2-1.2s-1.1,0.5-1.2,1.2H1003.3z"/>
					<path fill="#C8D2D2" d="M1004.7,655.5h0.7v5.7h-0.7V655.5z"/>
					<path fill="#C8D2D2" d="M1006.3,655.5h0.7v5.7h-0.7V655.5z"/>
					<path fill="#C8D2D2" d="M1009.6,657c1.3,0,2,1,2,2.2s-0.7,2.2-2,2.2s-2-1-2-2.2C1007.6,657.9,1008.3,657,1009.6,657z
						 M1009.6,660.7c0.7,0,1.3-0.6,1.3-1.6s-0.6-1.6-1.3-1.6s-1.3,0.6-1.3,1.6S1008.9,660.7,1009.6,660.7z"/>
					<path fill="#C8D2D2" d="M1012.4,660.3h0.9v0.9h-0.9V660.3z M1013.3,657.3l-0.2,2.5h-0.4l-0.2-2.5v-1.8h0.8L1013.3,657.3
						L1013.3,657.3z"/>
				</g>
				<g>
					<path fill="#C8D2D2" d="M986.4,611.5c0.1,0,0.2-0.1,0.2-0.2c0,0,0-0.1-0.1-0.2c-0.1-0.1-0.1-0.1-0.1-0.1s0,0,0.1,0
						c0.2,0,0.5,0.1,0.5,0.3c0,0.1-0.1,0.2-0.1,0.3c0.9,0.2,1.3,0.8,1.3,1.4c0,0.7-0.6,1.4-1.7,1.4c-1.1,0-1.8-0.7-1.8-1.4
						C984.8,612.3,985.3,611.7,986.4,611.5z M985.3,612.9c0,0.5,0.4,1.1,1.2,1.1s1.2-0.5,1.2-1.1c0-0.5-0.4-1.1-1.2-1.1
						C985.8,611.8,985.3,612.4,985.3,612.9z M987,615.7c0-0.2-0.2-0.2-0.6-0.3c-0.1,0-0.2-0.1-0.2-0.1s0.1-0.1,0.3-0.1
						c0.4,0,0.7,0,0.8,0.1c0.1,0,0.2,0.1,0.2,0.2c0,0.1,0,0.1,0,0.2c0,0.4,0,0.8,0,1.1c0,0.2,0.1,0.3,0.4,0.3h1.4
						c0.6,0,0.3-0.2,1-0.2c0.3,0,0.6,0,0.6,0.3c0,0.1-0.1,0.2-0.2,0.2h-2.9c-0.5,0-0.8-0.1-0.9-0.5L987,615.7z M989.7,610.9
						c0-0.1-0.2-0.2-0.7-0.4c-0.1,0-0.2-0.1-0.2-0.1s0.1-0.1,0.3-0.1c0,0,1.1,0.1,1.1,0.4c0,0.1,0,0.1,0,0.2v2.5c0.1,0,0.2,0,0.4,0
						c0.4-0.1,0.2-0.2,0.8-0.2c0.2,0,0.5,0,0.5,0.2c0,0.1-0.1,0.2-0.2,0.2h-1.4c0,1.4-0.1,1.8-0.1,2c-0.1,0.2-0.2,0.3-0.2,0.3
						s-0.1-0.1-0.1-0.4v-4.6H989.7z"/>
					<path fill="#C8D2D2" d="M993.4,611.7c0-0.2-0.3-0.3-0.6-0.3c-0.1,0-0.2-0.1-0.2-0.1s0.1-0.1,0.2-0.1c1,0,1.1,0.1,1.1,0.3v0.1
						v1.9c0,0.1,0,0.2,0.3,0.2s1.6-0.3,2.4-0.8c0.1,0,0.1,0,0.2,0l0,0c0,0,0,0.1-0.1,0.2c-1,0.7-2.6,1.2-2.8,1.2s-0.3-0.4-0.4-0.6
						L993.4,611.7z M996.8,614.8C996.9,614.8,996.9,614.7,996.8,614.8c0.1-0.1,0.1-0.2,0-0.3s-0.1-0.1-0.1-0.1s0,0,0.1,0
						s0.5,0.1,0.5,0.2c0,0.1-0.1,0.1-0.1,0.2c0.9,0.1,1.3,0.7,1.3,1.3c0,0.7-0.6,1.4-1.6,1.4s-1.6-0.7-1.6-1.4
						C995.3,615.5,995.8,614.9,996.8,614.8L996.8,614.8z M995.8,616.1c0,0.5,0.4,1,1.2,1c0.7,0,1.1-0.5,1.1-1s-0.4-1-1.1-1
						C996.2,615,995.8,615.5,995.8,616.1z M998.1,610.9c0-0.1-0.3-0.3-0.7-0.4c-0.1,0-0.2-0.1-0.2-0.1c0-0.1,0.2-0.1,0.2-0.1
						c0.2,0,1.2,0.2,1.2,0.4c0,0.1,0,0.1-0.1,0.2v2.2c0,1.3-0.1,1.6-0.3,1.8l-0.1,0.1c-0.1,0-0.1-0.2-0.1-0.5v-0.9
						c-0.4,0-0.7,0-1,0.1c-0.1,0-0.2,0.1-0.3,0.1s-0.7-0.2-0.7-0.3c0,0,0,0,0.1,0s0.5,0,0.5,0c0.4,0,0.8,0,1.3-0.1v-1.5
						c-0.5,0-0.8,0-1,0s-0.2,0.1-0.3,0.1s-0.6-0.2-0.6-0.3c0,0,0,0,0.1,0c0,0,0.1,0,0.2,0c0.2,0,0.3,0,0.5,0c0.4,0,0.7,0,1.2,0
						L998.1,610.9L998.1,610.9z"/>
					<path fill="#C8D2D2" d="M1003.5,612.4c0.7,0,0.3-0.2,1.2-0.2c0.4,0,0.5,0.1,0.5,0.2c0,0,0,0.2-0.3,0.2c-0.5,0-2,0.1-3,0.1
						c-0.3,0.1-0.3,0.2-0.5,0.2s-0.8-0.3-0.8-0.4c0,0,0,0,0.1,0h0.1c0.4,0,0.8,0.1,1.2,0.1C1002.3,612.4,1003.3,612.4,1003.5,612.4z
						 M1002.6,613.4c0.1,0,0.3,0,0.3-0.2c0,0,0-0.1-0.1-0.1l-0.1-0.1c0,0,0,0,0.1,0c0.2,0,0.4,0.2,0.4,0.3s-0.1,0.1-0.1,0.2
						c0.9,0.1,1.4,0.7,1.4,1.3s-0.6,1.3-1.6,1.3c-1.1,0-1.6-0.7-1.6-1.3C1001.3,614.1,1001.7,613.5,1002.6,613.4z M1002.6,611.6
						c-0.2,0-0.8-0.4-0.8-0.5c0,0,0,0,0.1,0c0,0,0.1,0,0.2,0c0.6,0.1,1,0.1,1.7,0.1c0.2,0,0.3,0.1,0.3,0.2c0,0.1-0.2,0.2-0.5,0.2
						H1002.6z M1001.8,614.6c0,0.5,0.4,1,1.1,1s1.1-0.5,1.1-1s-0.4-1-1.1-1S1001.8,614.1,1001.8,614.6z M1005.7,610.9
						c0-0.1-0.4-0.3-0.8-0.5c-0.1,0-0.1-0.1-0.1-0.1s0.1-0.1,0.3-0.1c0.3,0.1,0.7,0.1,0.9,0.2c0.2,0.1,0.2,0.1,0.2,0.2
						c0,0.1,0,0.1,0,0.3v2.9h0.4c0.4-0.1,0.2-0.2,0.8-0.2c0.2,0,0.5,0,0.5,0.2c0,0.1-0.1,0.2-0.3,0.2h-1.4v2.3
						c0,0.5-0.1,0.8-0.2,1.2c-0.1,0.1-0.1,0.1-0.2,0.1c-0.1,0-0.1-0.1-0.1-0.4L1005.7,610.9L1005.7,610.9z"/>
					<path fill="#C8D2D2" d="M1010.8,612.2c0-0.1-0.2-0.2-0.5-0.4c-0.2-0.1-0.2-0.2,0.1-0.2c0.1,0,1,0.3,1,0.5
						c0,0.1-0.6,1.3-0.7,1.3c0.1,0.2,0.3,0.4,0.4,0.5c0.3,0.3,0.5,0.2,0.7,1c0,0,0,0,0,0.1c0,0.2-0.1,0.3-0.2,0.3
						c-0.1,0-0.1,0-0.2-0.2c-0.2-0.3-0.5-0.9-0.9-1.5c-0.8,1-1.7,1.8-2,1.8l0,0c0,0,0.1-0.1,0.2-0.2
						C1009.5,614.5,1010.3,613.6,1010.8,612.2L1010.8,612.2z M1013.1,611.5c0-0.2-0.3-0.4-0.6-0.5c-0.1,0-0.2-0.1-0.2-0.1
						s0.1-0.1,0.3-0.1c0.3,0,0.6,0.1,0.8,0.2c0.2,0.1,0.2,0.1,0.2,0.2c0,0.1,0,0.1,0,0.2v4.3c0,1-0.2,1.3-0.3,1.3s-0.1-0.2-0.1-0.6
						v-3h-0.7c-0.2,0-0.3,0.1-0.4,0.1c-0.1,0-0.6-0.2-0.6-0.3c0,0,0,0,0.1,0s0.3,0,0.4,0c0.4,0,0.8,0,1.2,0v-1.7H1013.1z
						 M1014.3,610.9c0-0.1-0.3-0.3-0.6-0.5c-0.1,0-0.2-0.1-0.2-0.1s0.1-0.1,0.3-0.1c0.4,0.1,0.7,0.2,0.9,0.2
						c0.1,0.1,0.2,0.1,0.2,0.2c0,0.1,0,0.1,0,0.2v5.7c0,0.7-0.2,1.1-0.3,1.2c-0.1,0-0.1-0.1-0.2-0.5v-6.3H1014.3z"/>
					<path fill="#C8D2D2" d="M1023.3,616.5c-0.5,0-1.2,0-1.9,0c-1.3,0-2.8,0.1-3.5,0.1c-0.2,0.1-0.2,0.1-0.4,0.1s-1-0.4-1-0.5
						c0,0,0,0,0.1,0h0.1c0.6,0.1,1.3,0.1,2.1,0.1c0-0.2,0-0.6-0.1-0.8c0-0.1-0.1-0.2-0.5-0.3c-0.1,0-0.1,0-0.1-0.1
						c0,0,0.1-0.1,0.2-0.1c0.8,0.1,0.9,0.1,0.9,0.3v0.1c0,0.1,0,0.8,0,0.9c0.3,0,1.2,0,1.7,0c0-0.2,0.1-0.5,0.1-1
						c0-0.2-0.2-0.2-0.4-0.3c-0.1,0-0.1,0-0.1-0.1c0,0,0.1-0.1,0.2-0.1c0.7,0.1,0.9,0.2,0.9,0.3s-0.1,0.1-0.1,0.2
						c0,0.2-0.1,0.7-0.2,1c0.2,0,0.5,0,0.7-0.1c0.3,0,0.2-0.2,0.6-0.2c0.2,0,0.9,0,0.9,0.3C1023.6,616.4,1023.6,616.5,1023.3,616.5
						L1023.3,616.5z M1019.7,611.2c0.1,0,0.2-0.1,0.2-0.2c0,0,0-0.1-0.1-0.1c-0.1-0.1-0.1-0.1-0.1-0.1s0,0,0.1,0
						c0.3,0,0.5,0.2,0.5,0.3s-0.1,0.2-0.1,0.3c1.1,0.2,1.7,0.9,1.7,1.6c0,0.8-0.7,1.6-1.9,1.6s-1.9-0.8-1.9-1.6
						C1018.2,612.1,1018.7,611.4,1019.7,611.2z M1018.6,612.8c0,0.6,0.5,1.3,1.4,1.3s1.4-0.6,1.4-1.3s-0.5-1.3-1.4-1.3
						C1019.1,611.5,1018.6,612.2,1018.6,612.8z"/>
				</g>
				<rect x="-0.2" y="-21.1" fill="none" width="1280" height="721.1"/>
				<polygon fill="#ECF0F2" points="241,385 241,414 250,414 250,421.4 259.5,414 319,414 319,385 				"/>
				<g>
					<path fill="#C8D2D2" d="M270.5,396.2h0.8v2.4h3v-2.4h0.8v5.7h-0.8v-2.6h-3v2.6h-0.8V396.2z"/>
					<path fill="#C8D2D2" d="M279.5,400.6c-0.2,0.9-0.8,1.4-1.8,1.4c-1.3,0-1.9-0.9-2-2.2c0-1.2,0.8-2.1,1.9-2.1
						c1.5,0,1.9,1.4,1.9,2.3h-3.1c0,0.7,0.4,1.3,1.3,1.3c0.6,0,0.9-0.3,1.1-0.8h0.7V400.6z M278.9,399.5c0-0.6-0.5-1.2-1.2-1.2
						s-1.1,0.5-1.2,1.2H278.9z"/>
					<path fill="#C8D2D2" d="M280.3,396.2h0.7v5.7h-0.7V396.2z"/>
					<path fill="#C8D2D2" d="M281.8,396.2h0.7v5.7h-0.7V396.2z"/>
					<path fill="#C8D2D2" d="M285.2,397.7c1.3,0,2,0.9,2,2.2c0,1.2-0.7,2.1-2,2.1s-2-0.9-2-2.1S283.9,397.7,285.2,397.7z
						 M285.2,401.4c0.7,0,1.3-0.6,1.3-1.5c0-1-0.6-1.6-1.3-1.6s-1.3,0.6-1.3,1.6C283.9,400.8,284.5,401.4,285.2,401.4z"/>
					<path fill="#C8D2D2" d="M288,401h0.9v0.9H288V401z M288.8,398l-0.2,2.5h-0.4L288,398v-1.7h0.8L288.8,398L288.8,398z"/>
				</g>
				<polygon fill="#ECF0F2" points="308,433 308,425.9 298.5,433 241,433 241,462 319,462 319,433 				"/>
				<g>
					<path fill="#C8D2D2" d="M265.9,444.8h2.1c0.5,0,1.2,0,1.5,0.2c0.4,0.2,0.7,0.6,0.7,1.2s-0.3,1.1-0.8,1.3l0,0
						c0.7,0.2,1.1,0.7,1.1,1.4c0,0.8-0.6,1.6-1.7,1.6h-2.7v-5.7H265.9z M266.6,447.3h1.5c0.9,0,1.2-0.3,1.2-0.9
						c0-0.8-0.5-0.9-1.2-0.9h-1.5V447.3z M266.6,449.9h1.9c0.7,0,1.1-0.4,1.1-1c0-0.7-0.6-0.9-1.2-0.9h-1.7L266.6,449.9L266.6,449.9
						z"/>
					<path fill="#C8D2D2" d="M272.9,446.3c1.3,0,2,0.9,2,2.2c0,1.2-0.7,2.1-2,2.1s-2-0.9-2-2.1C270.9,447.2,271.6,446.3,272.9,446.3
						z M272.9,450c0.7,0,1.3-0.6,1.3-1.5c0-1-0.6-1.6-1.3-1.6c-0.7,0-1.3,0.6-1.3,1.6C271.6,449.4,272.2,450,272.9,450z"/>
					<path fill="#C8D2D2" d="M275.5,446.4h0.6v0.7l0,0c0.3-0.5,0.7-0.7,1.3-0.7c1.1,0,1.4,0.6,1.4,1.5v2.7h-0.7v-2.8
						c0-0.5-0.3-0.8-0.8-0.8c-0.8,0-1.2,0.5-1.2,1.3v2.3h-0.7v-4.2H275.5z"/>
					<path fill="#C8D2D2" d="M280.5,451c0,0.7-0.4,1-1,1c-0.1,0-0.2,0-0.3,0v-0.6h0.1h0.1c0.3,0,0.4-0.1,0.4-0.6v-4.5h0.7L280.5,451
						L280.5,451z M280.5,445.6h-0.7v-0.8h0.7V445.6z"/>
					<path fill="#C8D2D2" d="M283.2,446.3c1.3,0,2,0.9,2,2.2c0,1.2-0.7,2.1-2,2.1s-2-0.9-2-2.1C281.2,447.2,281.9,446.3,283.2,446.3
						z M283.2,450c0.7,0,1.3-0.6,1.3-1.5c0-1-0.6-1.6-1.3-1.6c-0.7,0-1.3,0.6-1.3,1.6C281.9,449.4,282.5,450,283.2,450z"/>
					<path fill="#C8D2D2" d="M289.2,450.5h-0.6v-0.7l0,0c-0.3,0.5-0.7,0.7-1.3,0.7c-1.1,0-1.4-0.6-1.4-1.5v-2.7h0.7v2.8
						c0,0.5,0.3,0.8,0.8,0.8c0.8,0,1.2-0.5,1.2-1.3v-2.3h0.7v4.2H289.2z"/>
					<path fill="#C8D2D2" d="M290.1,446.4h0.6v0.9l0,0c0.3-0.7,0.8-1,1.5-1v0.7c-1.1,0-1.5,0.6-1.5,1.7v1.8H290v-4.1H290.1z"/>
					<path fill="#C8D2D2" d="M292.7,449.6h0.9v0.9h-0.9V449.6z M293.6,446.6l-0.2,2.5H293l-0.2-2.5v-1.7h0.8L293.6,446.6
						L293.6,446.6z"/>
				</g>
				<polygon fill="#ECF0F2" points="124,40 44,40 44,69 54,69 54,76.9 64.3,69 124,69 				"/>
				<polygon fill="#ECF0F2" points="114,89 114,81.5 104.3,89 44,89 44,118 124,118 124,89 				"/>
				<g>
					<path fill="#C8D2D2" d="M73,100.8h0.8v2.5h3v-2.5h0.8v5.7h-0.8v-2.6h-3v2.6H73V100.8z"/>
					<path fill="#C8D2D2" d="M82.1,105.2c-0.2,0.9-0.8,1.4-1.8,1.4c-1.3,0-2-0.9-2-2.2c0-1.3,0.8-2.2,2-2.2c1.5,0,1.9,1.4,1.9,2.4
						h-3.1c0,0.7,0.4,1.4,1.3,1.4c0.6,0,1-0.3,1.1-0.8C81.5,105.2,82.1,105.2,82.1,105.2z M81.5,104.1c0-0.7-0.5-1.2-1.2-1.2
						s-1.2,0.5-1.2,1.2H81.5z"/>
					<path fill="#C8D2D2" d="M82.9,100.8h0.7v5.7h-0.7V100.8z"/>
					<path fill="#C8D2D2" d="M84.5,100.8h0.7v5.7h-0.7V100.8z"/>
					<path fill="#C8D2D2" d="M87.9,102.3c1.3,0,2,1,2,2.2s-0.7,2.2-2,2.2s-2-1-2-2.2S86.6,102.3,87.9,102.3z M87.9,106.1
						c0.7,0,1.3-0.6,1.3-1.6s-0.6-1.6-1.3-1.6c-0.7,0-1.3,0.6-1.3,1.6S87.2,106.1,87.9,106.1z"/>
					<path fill="#C8D2D2" d="M90.7,105.7h0.9v0.9h-0.9V105.7z M91.5,102.6l-0.2,2.5H91l-0.2-2.5v-1.8h0.8v1.8H91.5z"/>
				</g>
				<g>
					<path fill="#C8D2D2" d="M76.3,53.3c-0.3,0.5-0.6,1-1,1.5c-0.1-0.1-0.3-0.4-0.4-0.5c0.9-1,1.7-2.8,2.3-4.6l0.8,0.2
						c0,0.1-0.1,0.1-0.2,0.1c-0.3,0.7-0.6,1.5-0.9,2.2l0.3,0.1c0,0.1-0.1,0.1-0.2,0.1v5.9h-0.6v-5H76.3z M82.7,53.6
						c0.1-0.3,0.2-0.9,0.3-1.4h-1.9v5.5c0,0.7-0.2,0.8-1.6,0.8c0-0.2-0.1-0.5-0.2-0.6c0.2,0,0.5,0,0.6,0h0.4c0.1,0,0.2,0,0.2-0.2
						v-5.5H79c-0.3,0.7-0.6,1.3-1,1.8c-0.1-0.1-0.3-0.3-0.5-0.4c0.7-0.9,1.2-2.3,1.5-3.8l0.8,0.2c0,0.1-0.1,0.1-0.2,0.1
						c-0.1,0.5-0.3,1-0.4,1.5h4.1h0.3c0,0.2-0.2,1.4-0.4,2.1L82.7,53.6z M79.7,53.9c0,0.1-0.1,0.1-0.2,0.1c-0.3,1.2-0.8,2.4-1.4,3.1
						c-0.1-0.1-0.3-0.2-0.5-0.3c0.6-0.7,1.1-1.9,1.3-3.1L79.7,53.9z M83.1,57c-0.2-0.9-0.7-2.2-1.3-3.2l0.6-0.2
						c0.6,1,1.1,2.3,1.3,3.2L83.1,57z"/>
					<path fill="#C8D2D2" d="M87.5,51.7l0.4,0.1l-0.1,0.1c-0.1,1.7-0.4,3-0.9,4c0.5,0.4,0.9,0.7,1.1,1l-0.4,0.5
						c-0.2-0.3-0.6-0.6-1-1c-0.5,0.9-1.1,1.5-1.9,2c-0.1-0.2-0.3-0.4-0.4-0.5c0.7-0.4,1.3-1,1.8-1.8c-0.3-0.3-0.7-0.5-1.1-0.7v0.4
						l-0.5-0.3c0.2-0.8,0.5-2,0.8-3.2h-0.9v-0.6h1.1c0.1-0.7,0.3-1.4,0.4-2l0.8,0.1c0,0.1-0.1,0.1-0.2,0.1c-0.1,0.5-0.2,1.1-0.4,1.8
						H87.5L87.5,51.7z M85.9,52.3c-0.2,0.9-0.4,1.7-0.6,2.5c0.4,0.2,0.8,0.5,1.2,0.7c0.4-0.9,0.6-2,0.8-3.3L85.9,52.3L85.9,52.3z
						 M93,53.9v0.6h-2.3v3.1c0,0.7-0.3,0.8-1.9,0.8c0-0.2-0.1-0.4-0.2-0.6c0.4,0,0.9,0,1.1,0c0.3,0,0.4,0,0.4-0.2v-3.1h-2.3v-0.6
						h2.3v-1.6h0.3c0.5-0.4,1-1,1.4-1.5h-3.6v-0.6h4.1h0.1l0.5,0.3c0,0-0.1,0.1-0.2,0.1c-0.5,0.7-1.3,1.6-2,2.2v1.1H93z"/>
				</g>
				<polygon fill="#ECF0F2" points="705,88 625,88 625,115 635,115 635,121.5 644.7,115 705,115 				"/>
				<polygon fill="#ECF0F2" points="695,132 695,125.6 685.3,132 625,132 625,159 705,159 705,132 				"/>
				<g>
					<path fill="#C8D2D2" d="M655.9,142.5h0.8v2.5h3v-2.5h0.8v5.7h-0.8v-2.6h-3v2.6h-0.8V142.5z"/>
					<path fill="#C8D2D2" d="M664.9,146.9c-0.2,0.9-0.8,1.4-1.8,1.4c-1.3,0-1.9-0.9-2-2.2c0-1.2,0.8-2.2,1.9-2.2
						c1.5,0,1.9,1.4,1.9,2.4h-3.1c0,0.7,0.4,1.4,1.3,1.4c0.6,0,1-0.3,1.1-0.8L664.9,146.9L664.9,146.9z M664.3,145.7
						c0-0.6-0.5-1.2-1.2-1.2s-1.1,0.5-1.2,1.2H664.3z"/>
					<path fill="#C8D2D2" d="M665.7,142.5h0.7v5.7h-0.7V142.5z"/>
					<path fill="#C8D2D2" d="M667.3,142.5h0.7v5.7h-0.7V142.5z"/>
					<path fill="#C8D2D2" d="M670.6,144c1.3,0,2,1,2,2.2s-0.7,2.2-2,2.2s-2-1-2-2.2C668.6,144.9,669.3,144,670.6,144z M670.6,147.7
						c0.7,0,1.3-0.6,1.3-1.6s-0.6-1.6-1.3-1.6s-1.3,0.6-1.3,1.6S669.9,147.7,670.6,147.7z"/>
					<path fill="#C8D2D2" d="M673.4,147.3h0.9v0.9h-0.9V147.3z M674.3,144.3l-0.2,2.5h-0.4l-0.2-2.5v-1.8h0.8L674.3,144.3
						L674.3,144.3z"/>
				</g>
				<g>
					<path fill="#C8D2D2" d="M647.4,98.5c0.1,0,0.2-0.1,0.2-0.2c0,0,0-0.1-0.1-0.2s-0.1-0.1-0.1-0.1s0,0,0.1,0
						c0.2,0,0.5,0.1,0.5,0.3c0,0.1-0.1,0.2-0.1,0.3c0.9,0.2,1.3,0.8,1.3,1.4c0,0.7-0.6,1.4-1.7,1.4c-1.1,0-1.8-0.7-1.8-1.4
						C645.8,99.3,646.3,98.7,647.4,98.5z M646.3,99.9c0,0.5,0.4,1.1,1.2,1.1s1.2-0.5,1.2-1.1c0-0.5-0.4-1.1-1.2-1.1
						C646.8,98.8,646.3,99.4,646.3,99.9z M648,102.7c0-0.2-0.2-0.2-0.6-0.3c-0.1,0-0.2-0.1-0.2-0.1s0.1-0.1,0.3-0.1
						c0.4,0,0.7,0,0.8,0.1c0.1,0,0.2,0.1,0.2,0.2s0,0.1,0,0.2c0,0.4,0,0.8,0,1.1c0,0.2,0.1,0.3,0.4,0.3h1.4c0.6,0,0.3-0.2,1-0.2
						c0.3,0,0.6,0,0.6,0.3c0,0.1-0.1,0.2-0.2,0.2h-2.9c-0.5,0-0.8-0.1-0.9-0.5L648,102.7z M650.7,97.9c0-0.1-0.2-0.2-0.7-0.4
						c-0.1,0-0.2-0.1-0.2-0.1s0.1-0.1,0.3-0.1c0,0,1.1,0.1,1.1,0.4c0,0.1,0,0.1,0,0.2v2.5c0.1,0,0.2,0,0.4,0
						c0.4-0.1,0.2-0.2,0.8-0.2c0.2,0,0.5,0,0.5,0.2c0,0.1-0.1,0.2-0.2,0.2h-1.4c0,1.4-0.1,1.8-0.1,2c-0.1,0.2-0.2,0.3-0.2,0.3
						s-0.1-0.1-0.1-0.4v-4.6H650.7z"/>
					<path fill="#C8D2D2" d="M654.4,98.7c0-0.2-0.3-0.3-0.6-0.3c-0.1,0-0.2-0.1-0.2-0.1s0.1-0.1,0.2-0.1c1,0,1.1,0.1,1.1,0.3v0.1
						v1.9c0,0.1,0,0.2,0.3,0.2s1.6-0.3,2.4-0.8c0.1,0,0.1,0,0.2,0l0,0c0,0,0,0.1-0.1,0.2c-1,0.7-2.6,1.2-2.8,1.2s-0.3-0.4-0.4-0.6
						L654.4,98.7z M657.8,101.8C657.9,101.8,657.9,101.7,657.8,101.8c0.1-0.1,0.1-0.2,0-0.3s-0.1-0.1-0.1-0.1s0,0,0.1,0
						s0.5,0.1,0.5,0.2s-0.1,0.1-0.1,0.2c0.9,0.1,1.3,0.7,1.3,1.3c0,0.7-0.6,1.4-1.6,1.4s-1.6-0.7-1.6-1.4
						C656.3,102.5,656.8,101.9,657.8,101.8L657.8,101.8z M656.8,103.1c0,0.5,0.4,1,1.2,1c0.7,0,1.1-0.5,1.1-1s-0.4-1-1.1-1
						C657.2,102,656.8,102.5,656.8,103.1z M659.1,97.9c0-0.1-0.3-0.3-0.7-0.4c-0.1,0-0.2-0.1-0.2-0.1c0-0.1,0.2-0.1,0.2-0.1
						c0.2,0,1.2,0.2,1.2,0.4c0,0.1,0,0.1-0.1,0.2v2.2c0,1.3-0.1,1.6-0.3,1.8l-0.1,0.1c-0.1,0-0.1-0.2-0.1-0.5v-0.9
						c-0.4,0-0.7,0-1,0.1c-0.1,0-0.2,0.1-0.3,0.1s-0.7-0.2-0.7-0.3c0,0,0,0,0.1,0s0.5,0,0.5,0c0.4,0,0.8,0,1.3-0.1v-1.5
						c-0.5,0-0.8,0-1,0s-0.2,0.1-0.3,0.1s-0.6-0.2-0.6-0.3c0,0,0,0,0.1,0c0,0,0.1,0,0.2,0c0.2,0,0.3,0,0.5,0c0.4,0,0.7,0,1.2,0
						L659.1,97.9L659.1,97.9z"/>
					<path fill="#C8D2D2" d="M664.5,99.4c0.7,0,0.3-0.2,1.2-0.2c0.4,0,0.5,0.1,0.5,0.2c0,0,0,0.2-0.3,0.2c-0.5,0-2,0.1-3,0.1
						c-0.3,0.1-0.3,0.2-0.5,0.2s-0.8-0.3-0.8-0.4c0,0,0,0,0.1,0h0.1c0.4,0,0.8,0.1,1.2,0.1C663.3,99.4,664.3,99.4,664.5,99.4z
						 M663.6,100.4c0.1,0,0.3,0,0.3-0.2c0,0,0-0.1-0.1-0.1l-0.1-0.1c0,0,0,0,0.1,0c0.2,0,0.4,0.2,0.4,0.3c0,0.1-0.1,0.1-0.1,0.2
						c0.9,0.1,1.4,0.7,1.4,1.3c0,0.6-0.6,1.3-1.6,1.3c-1.1,0-1.6-0.7-1.6-1.3C662.3,101.1,662.7,100.5,663.6,100.4z M663.6,98.6
						c-0.2,0-0.8-0.4-0.8-0.5c0,0,0,0,0.1,0c0,0,0.1,0,0.2,0c0.6,0.1,1,0.1,1.7,0.1c0.2,0,0.3,0.1,0.3,0.2s-0.2,0.2-0.5,0.2
						L663.6,98.6z M662.8,101.6c0,0.5,0.4,1,1.1,1s1.1-0.5,1.1-1s-0.4-1-1.1-1S662.8,101.1,662.8,101.6z M666.7,97.9
						c0-0.1-0.4-0.3-0.8-0.5c-0.1,0-0.1-0.1-0.1-0.1s0.1-0.1,0.3-0.1c0.3,0.1,0.7,0.1,0.9,0.2s0.2,0.1,0.2,0.2s0,0.1,0,0.3v2.9h0.4
						c0.4-0.1,0.2-0.2,0.8-0.2c0.2,0,0.5,0,0.5,0.2c0,0.1-0.1,0.2-0.3,0.2h-1.4v2.3c0,0.5-0.1,0.8-0.2,1.2c-0.1,0.1-0.1,0.1-0.2,0.1
						c-0.1,0-0.1-0.1-0.1-0.4L666.7,97.9L666.7,97.9z"/>
					<path fill="#C8D2D2" d="M671.8,99.2c0-0.1-0.2-0.2-0.5-0.4c-0.2-0.1-0.2-0.2,0.1-0.2c0.1,0,1,0.3,1,0.5c0,0.1-0.6,1.3-0.7,1.3
						c0.1,0.2,0.3,0.4,0.4,0.5c0.3,0.3,0.5,0.2,0.7,1c0,0,0,0,0,0.1c0,0.2-0.1,0.3-0.2,0.3c-0.1,0-0.1,0-0.2-0.2
						c-0.2-0.3-0.5-0.9-0.9-1.5c-0.8,1-1.7,1.8-2,1.8l0,0c0,0,0.1-0.1,0.2-0.2C670.5,101.5,671.3,100.6,671.8,99.2L671.8,99.2z
						 M674.1,98.5c0-0.2-0.3-0.4-0.6-0.5c-0.1,0-0.2-0.1-0.2-0.1s0.1-0.1,0.3-0.1c0.3,0,0.6,0.1,0.8,0.2s0.2,0.1,0.2,0.2
						s0,0.1,0,0.2v4.3c0,1-0.2,1.3-0.3,1.3s-0.1-0.2-0.1-0.6v-3h-0.7c-0.2,0-0.3,0.1-0.4,0.1c-0.1,0-0.6-0.2-0.6-0.3c0,0,0,0,0.1,0
						s0.3,0,0.4,0c0.4,0,0.8,0,1.2,0v-1.7H674.1z M675.3,97.9c0-0.1-0.3-0.3-0.6-0.5c-0.1,0-0.2-0.1-0.2-0.1s0.1-0.1,0.3-0.1
						c0.4,0.1,0.7,0.2,0.9,0.2c0.1,0.1,0.2,0.1,0.2,0.2s0,0.1,0,0.2v5.7c0,0.7-0.2,1.1-0.3,1.2c-0.1,0-0.1-0.1-0.2-0.5v-6.3H675.3z"
						/>
					<path fill="#C8D2D2" d="M684.3,103.5c-0.5,0-1.2,0-1.9,0c-1.3,0-2.8,0.1-3.5,0.1c-0.2,0.1-0.2,0.1-0.4,0.1s-1-0.4-1-0.5
						c0,0,0,0,0.1,0h0.1c0.6,0.1,1.3,0.1,2.1,0.1c0-0.2,0-0.6-0.1-0.8c0-0.1-0.1-0.2-0.5-0.3c-0.1,0-0.1,0-0.1-0.1
						c0,0,0.1-0.1,0.2-0.1c0.8,0.1,0.9,0.1,0.9,0.3v0.1c0,0.1,0,0.8,0,0.9c0.3,0,1.2,0,1.7,0c0-0.2,0.1-0.5,0.1-1
						c0-0.2-0.2-0.2-0.4-0.3c-0.1,0-0.1,0-0.1-0.1c0,0,0.1-0.1,0.2-0.1c0.7,0.1,0.9,0.2,0.9,0.3c0,0.1-0.1,0.1-0.1,0.2
						c0,0.2-0.1,0.7-0.2,1c0.2,0,0.5,0,0.7-0.1c0.3,0,0.2-0.2,0.6-0.2c0.2,0,0.9,0,0.9,0.3C684.6,103.4,684.6,103.5,684.3,103.5
						L684.3,103.5z M680.7,98.2c0.1,0,0.2-0.1,0.2-0.2c0,0,0-0.1-0.1-0.1c-0.1-0.1-0.1-0.1-0.1-0.1s0,0,0.1,0c0.3,0,0.5,0.2,0.5,0.3
						c0,0.1-0.1,0.2-0.1,0.3c1.1,0.2,1.7,0.9,1.7,1.6c0,0.8-0.7,1.6-1.9,1.6s-1.9-0.8-1.9-1.6C679.2,99.1,679.7,98.4,680.7,98.2z
						 M679.6,99.8c0,0.6,0.5,1.3,1.4,1.3s1.4-0.6,1.4-1.3s-0.5-1.3-1.4-1.3S679.6,99.2,679.6,99.8z"/>
				</g>
				<polygon fill="#ECF0F2" points="724,402 644,402 644,431 654,431 654,438.9 663.7,431 724,431 				"/>
				<polygon fill="#ECF0F2" points="714,451 714,443.5 704.3,451 644,451 644,480 724,480 724,451 				"/>
				<g>
					<path fill="#C8D2D2" d="M673,462.8h0.8v2.5h3v-2.5h0.8v5.7h-0.8v-2.6h-3v2.6H673V462.8z"/>
					<path fill="#C8D2D2" d="M682.1,467.2c-0.2,0.9-0.8,1.4-1.8,1.4c-1.3,0-2-0.9-2-2.2c0-1.3,0.8-2.2,2-2.2c1.5,0,1.9,1.4,1.9,2.4
						h-3.1c0,0.7,0.4,1.4,1.3,1.4c0.6,0,1-0.3,1.1-0.8L682.1,467.2L682.1,467.2z M681.5,466.1c0-0.7-0.5-1.2-1.2-1.2
						s-1.2,0.5-1.2,1.2H681.5z"/>
					<path fill="#C8D2D2" d="M682.9,462.8h0.7v5.7h-0.7V462.8z"/>
					<path fill="#C8D2D2" d="M684.5,462.8h0.7v5.7h-0.7V462.8z"/>
					<path fill="#C8D2D2" d="M687.9,464.3c1.3,0,2,1,2,2.2s-0.7,2.2-2,2.2s-2-1-2-2.2S686.6,464.3,687.9,464.3z M687.9,468.1
						c0.7,0,1.3-0.6,1.3-1.6s-0.6-1.6-1.3-1.6s-1.3,0.6-1.3,1.6C686.6,467.5,687.2,468.1,687.9,468.1z"/>
					<path fill="#C8D2D2" d="M690.7,467.7h0.9v0.9h-0.9V467.7z M691.5,464.6l-0.2,2.5H691l-0.2-2.5v-1.8h0.8L691.5,464.6
						L691.5,464.6z"/>
				</g>
				<g>
					<path fill="#C8D2D2" d="M676.3,415.3c-0.3,0.5-0.6,1-1,1.5c-0.1-0.1-0.3-0.4-0.4-0.5c0.9-1,1.7-2.8,2.3-4.6l0.8,0.2
						c0,0.1-0.1,0.1-0.2,0.1c-0.3,0.7-0.6,1.5-0.9,2.2l0.3,0.1c0,0.1-0.1,0.1-0.2,0.1v5.9h-0.6L676.3,415.3L676.3,415.3z
						 M682.7,415.6c0.1-0.3,0.2-0.9,0.3-1.4h-1.9v5.5c0,0.7-0.2,0.8-1.6,0.8c0-0.2-0.1-0.5-0.2-0.6c0.2,0,0.5,0,0.6,0h0.4
						c0.1,0,0.2,0,0.2-0.2v-5.5H679c-0.3,0.7-0.6,1.3-1,1.8c-0.1-0.1-0.3-0.3-0.5-0.4c0.7-0.9,1.2-2.3,1.5-3.8l0.8,0.2
						c0,0.1-0.1,0.1-0.2,0.1c-0.1,0.5-0.3,1-0.4,1.5h4.1h0.3c0,0.2-0.2,1.4-0.4,2.1L682.7,415.6z M679.7,415.9
						c0,0.1-0.1,0.1-0.2,0.1c-0.3,1.2-0.8,2.4-1.4,3.1c-0.1-0.1-0.3-0.2-0.5-0.3c0.6-0.7,1.1-1.9,1.3-3.1L679.7,415.9z M683.1,419
						c-0.2-0.9-0.7-2.2-1.3-3.2l0.6-0.2c0.6,1,1.1,2.3,1.3,3.2L683.1,419z"/>
					<path fill="#C8D2D2" d="M687.5,413.7l0.4,0.1l-0.1,0.1c-0.1,1.7-0.4,3-0.9,4c0.5,0.4,0.9,0.7,1.1,1l-0.4,0.5
						c-0.2-0.3-0.6-0.6-1-1c-0.5,0.9-1.1,1.5-1.9,2c-0.1-0.2-0.3-0.4-0.4-0.5c0.7-0.4,1.3-1,1.8-1.8c-0.3-0.3-0.7-0.5-1.1-0.7
						l-0.1,0.4l-0.5-0.3c0.2-0.8,0.5-2,0.8-3.2h-0.9v-0.6h1.1c0.1-0.7,0.3-1.4,0.4-2l0.8,0.1c0,0.1-0.1,0.1-0.2,0.1
						c-0.1,0.5-0.2,1.1-0.4,1.8h1.4H687.5z M685.9,414.3c-0.2,0.9-0.4,1.7-0.6,2.5c0.4,0.2,0.8,0.5,1.2,0.7c0.4-0.9,0.6-2,0.8-3.3
						L685.9,414.3L685.9,414.3z M693,415.9v0.6h-2.3v3.1c0,0.7-0.3,0.8-1.9,0.8c0-0.2-0.1-0.4-0.2-0.6c0.4,0,0.9,0,1.1,0
						c0.3,0,0.4,0,0.4-0.2v-3.1h-2.3v-0.6h2.3v-1.6h0.3c0.5-0.4,1-1,1.4-1.5h-3.6v-0.6h4.1h0.1l0.5,0.3c0,0-0.1,0.1-0.2,0.1
						c-0.5,0.7-1.3,1.6-2,2.2v1.2h2.3V415.9z"/>
				</g>
				<polygon fill="#ECF0F2" points="899,-3 899,-18.1 879.8,-3 760,-3 760,55 918,55 918,-3 				"/>
				<path fill="#C8D2D2" d="M809.6,20.2h4.2c1,0,2.4,0,3,0.4c0.8,0.4,1.3,1.3,1.3,2.4c0,1.2-0.6,2.1-1.7,2.6l0,0
					c1.4,0.3,2.2,1.3,2.2,2.8c0,1.7-1.2,3.3-3.5,3.3h-5.5V20.2z M811.1,25.1h3c1.7,0,2.4-0.6,2.4-1.8c0-1.6-1.1-1.8-2.4-1.8h-3V25.1
					z M811.1,30.3h3.8c1.3,0,2.1-0.8,2.1-2.1c0-1.5-1.2-1.9-2.5-1.9H811v4H811.1z"/>
				<path fill="#C8D2D2" d="M823.8,23.1c2.6,0,4,1.9,4,4.3s-1.4,4.3-4,4.3s-4-1.9-4-4.3S821.2,23.1,823.8,23.1z M823.8,30.6
					c1.4,0,2.6-1.1,2.6-3.1s-1.2-3.1-2.6-3.1c-1.4,0-2.6,1.1-2.6,3.1S822.4,30.6,823.8,30.6z"/>
				<path fill="#C8D2D2" d="M829.2,23.3h1.3v1.3l0,0c0.6-1,1.5-1.5,2.7-1.5c2.2,0,2.9,1.3,2.9,3v5.5h-1.4V26c0-1-0.6-1.7-1.7-1.7
					c-1.7,0-2.5,1.1-2.5,2.6v4.7h-1.4v-8.3H829.2z"/>
				<path fill="#C8D2D2" d="M839.1,32.7c0,1.5-0.8,2.1-2,2.1c-0.2,0-0.5,0-0.7-0.1v-1.2c0.1,0,0.2,0,0.3,0h0.3
					c0.6,0,0.8-0.3,0.8-1.1v-9.1h1.4L839.1,32.7L839.1,32.7z M839.1,21.8h-1.4v-1.7h1.4V21.8z"/>
				<path fill="#C8D2D2" d="M844.6,23.1c2.6,0,4,1.9,4,4.3s-1.4,4.3-4,4.3s-4-1.9-4-4.3C840.5,25,841.9,23.1,844.6,23.1z
					 M844.6,30.6c1.4,0,2.6-1.1,2.6-3.1s-1.2-3.1-2.6-3.1c-1.4,0-2.6,1.1-2.6,3.1S843.1,30.6,844.6,30.6z"/>
				<path fill="#C8D2D2" d="M856.8,31.6h-1.3v-1.3l0,0c-0.6,1-1.5,1.5-2.7,1.5c-2.2,0-2.9-1.3-2.9-3v-5.5h1.4v5.6
					c0,1,0.6,1.7,1.7,1.7c1.7,0,2.5-1.1,2.5-2.6v-4.7h1.4v8.3H856.8z"/>
				<path fill="#C8D2D2" d="M858.5,23.3h1.3V25l0,0c0.7-1.3,1.6-2,3-1.9v1.4c-2.2,0-3,1.2-3,3.4v3.7h-1.4v-8.3H858.5z"/>
				<path fill="#C8D2D2" d="M863.9,29.8h1.8v1.8h-1.8V29.8z M865.6,23.7l-0.4,5h-0.7l-0.4-5v-3.5h1.5L865.6,23.7L865.6,23.7z"/>
			</g>
		</g>
	</g>
</g>
<g id="Layer_1_1_">
</g>
<g id="log_in_panel">
</g>
<g id="mobile_toolbar_popover">
</g>
<g id="Left_SideBar">
</g>
<g id="pop_up">
</g>
<g id="footer">
</g>
<g id="back_to_top_arrow">
</g>
<g id="top_nav_bar">
</g>
</svg>
